<svg xmlns="http://www.w3.org/2000/svg" xmlns:xlink="http://www.w3.org/1999/xlink" width="500" zoomAndPan="magnify" viewBox="0 0 375 374.999991" height="500" preserveAspectRatio="xMidYMid meet" version="1.0"><defs><clipPath id="f4d9c044aa"><path d="M 103.1875 169.007812 L 248.6875 169.007812 L 248.6875 223.757812 L 103.1875 223.757812 Z M 103.1875 169.007812 " clip-rule="nonzero"/></clipPath><clipPath id="8a4139689b"><path d="M 18 9 L 145.6875 9 L 145.6875 54 L 18 54 Z M 18 9 " clip-rule="nonzero"/></clipPath><clipPath id="cb01311292"><rect x="0" width="146" y="0" height="55"/></clipPath><clipPath id="8a99e75dca"><path d="M 149 131 L 205.796875 131 L 205.796875 182 L 149 182 Z M 149 131 " clip-rule="nonzero"/></clipPath><clipPath id="772bf5d382"><path d="M 162 111.492188 L 192 111.492188 L 192 129 L 162 129 Z M 162 111.492188 " clip-rule="nonzero"/></clipPath></defs><g clip-path="url(#f4d9c044aa)"><g transform="matrix(1, 0, 0, 1, 103, 169)"><g clip-path="url(#cb01311292)"><g clip-path="url(#8a4139689b)"><path fill="#000000" d="M 21.777344 25.902344 C 24.605469 24.699219 27.5 24.941406 30.398438 25.539062 C 35.667969 26.632812 40.527344 28.851562 44.835938 31.945312 C 50.011719 35.667969 55.738281 36.421875 61.707031 35.839844 C 66.550781 35.367188 71.351562 34.320312 76.136719 33.34375 C 78.585938 32.847656 80.957031 31.980469 83.363281 31.257812 C 83.527344 31.207031 83.628906 31.042969 83.609375 30.875 L 83.609375 30.867188 C 83.585938 30.691406 83.433594 30.5625 83.257812 30.5625 C 82.121094 30.578125 80.972656 30.53125 79.851562 30.65625 C 75.460938 31.15625 71.09375 31.980469 66.699219 32.167969 C 64.066406 32.277344 61.210938 31.878906 58.78125 30.910156 C 54.660156 29.269531 54.328125 24.132812 58.144531 21.90625 C 60.066406 20.789062 62.425781 20.152344 64.65625 19.890625 C 72.871094 18.921875 80.832031 17.257812 88.398438 13.691406 C 96.433594 9.90625 104.945312 7.875 113.734375 10.503906 C 118.972656 12.070312 124.074219 14.257812 128.992188 16.664062 C 134.089844 19.160156 139.003906 22.03125 144.011719 24.855469 C 145.480469 25.6875 145.945312 27.585938 145.023438 28.996094 L 132.050781 48.832031 C 131.261719 50.039062 129.710938 50.480469 128.398438 49.886719 C 121.085938 46.59375 113.484375 45.957031 105.609375 47.535156 C 99.878906 48.679688 94.15625 49.859375 88.460938 51.167969 C 72.375 54.859375 56.828125 53.511719 42.097656 45.871094 C 35.046875 42.21875 28.269531 38.035156 21.34375 34.128906 C 19.714844 33.214844 18.332031 32.167969 18.433594 30.097656 C 18.539062 27.957031 19.90625 26.703125 21.777344 25.902344 Z M 21.777344 25.902344 " fill-opacity="1" fill-rule="nonzero"/></g></g></g></g><g clip-path="url(#8a99e75dca)"><path fill="#178768" d="M 166.695312 132.417969 C 164.316406 133.664062 163.984375 135.28125 160.769531 140.558594 C 155.890625 148.566406 155.101562 147.386719 152.871094 151.867188 C 151.503906 154.609375 146.589844 165.523438 151.503906 172.519531 C 152.871094 174.46875 154.480469 175.375 156.972656 176.742188 C 167.894531 182.742188 179.441406 181.375 185.992188 180.511719 C 192.421875 179.667969 196.632812 179.050781 200.269531 175.535156 C 201.496094 174.328125 202.511719 172.96875 203.3125 171.449219 C 204.117188 169.933594 204.671875 168.328125 204.976562 166.640625 C 205.761719 162.035156 204.167969 158.589844 201.332031 152.46875 C 200.425781 150.507812 197.789062 146.640625 192.523438 138.898438 C 190.238281 135.542969 189.007812 133.824219 186.601562 132.71875 C 185 131.988281 183.980469 132.027344 178.550781 131.964844 C 168.773438 131.851562 168.136719 131.667969 166.695312 132.417969 Z M 166.695312 132.417969 " fill-opacity="1" fill-rule="nonzero"/></g><path fill="#f2ce80" d="M 177.582031 158.523438 C 178.007812 158.523438 178.417969 158.605469 178.808594 158.765625 C 179.203125 158.925781 179.550781 159.15625 179.855469 159.457031 C 180.15625 159.757812 180.386719 160.101562 180.550781 160.492188 C 180.714844 160.882812 180.796875 161.289062 180.796875 161.710938 C 180.796875 162.136719 180.714844 162.542969 180.550781 162.933594 C 180.390625 163.324219 180.15625 163.667969 179.855469 163.96875 C 179.554688 164.269531 179.207031 164.5 178.8125 164.660156 C 178.417969 164.824219 178.007812 164.902344 177.582031 164.902344 C 177.15625 164.902344 176.746094 164.824219 176.351562 164.660156 C 175.960938 164.5 175.613281 164.269531 175.3125 163.96875 C 175.007812 163.671875 174.777344 163.324219 174.613281 162.933594 C 174.449219 162.542969 174.367188 162.136719 174.367188 161.714844 L 170.132812 162.078125 C 170.132812 162.539062 170.179688 162.996094 170.269531 163.449219 C 170.359375 163.902344 170.496094 164.339844 170.671875 164.769531 C 170.851562 165.195312 171.070312 165.597656 171.328125 165.984375 C 171.585938 166.367188 171.878906 166.722656 172.210938 167.046875 C 172.539062 167.375 172.898438 167.667969 173.285156 167.921875 C 173.671875 168.179688 174.078125 168.394531 174.507812 168.570312 C 174.9375 168.75 175.382812 168.882812 175.835938 168.972656 C 176.292969 169.0625 176.753906 169.105469 177.21875 169.105469 C 177.683594 169.105469 178.144531 169.0625 178.601562 168.972656 C 179.058594 168.878906 179.5 168.746094 179.929688 168.570312 C 180.359375 168.394531 180.769531 168.175781 181.15625 167.921875 C 181.542969 167.664062 181.898438 167.371094 182.226562 167.046875 C 182.554688 166.71875 182.851562 166.363281 183.109375 165.980469 C 183.367188 165.59375 183.585938 165.191406 183.761719 164.761719 C 183.941406 164.335938 184.074219 163.898438 184.164062 163.445312 C 184.253906 162.992188 184.300781 162.535156 184.300781 162.070312 C 184.300781 161.609375 184.253906 161.152344 184.164062 160.699219 C 184.074219 160.246094 183.9375 159.808594 183.761719 159.382812 C 183.582031 158.953125 183.363281 158.550781 183.105469 158.164062 C 182.847656 157.78125 182.554688 157.425781 182.222656 157.101562 C 181.894531 156.773438 181.539062 156.484375 181.152344 156.226562 C 180.765625 155.96875 180.355469 155.753906 179.925781 155.578125 C 179.496094 155.402344 179.054688 155.265625 178.597656 155.175781 C 178.140625 155.085938 177.679688 155.042969 177.214844 155.042969 " fill-opacity="1" fill-rule="nonzero"/><path fill="#f2ce80" d="M 177.34375 155.058594 C 176.917969 155.070312 176.503906 155.003906 176.105469 154.855469 C 175.703125 154.710938 175.347656 154.492188 175.039062 154.203125 C 174.726562 153.914062 174.480469 153.578125 174.304688 153.191406 C 174.128906 152.808594 174.03125 152.402344 174.015625 151.980469 C 174.003906 151.558594 174.070312 151.148438 174.21875 150.75 C 174.367188 150.355469 174.585938 150.003906 174.878906 149.691406 C 175.167969 149.382812 175.507812 149.140625 175.894531 148.964844 C 176.285156 148.789062 176.691406 148.695312 177.117188 148.679688 C 177.542969 148.667969 177.957031 148.734375 178.355469 148.882812 C 178.753906 149.03125 179.109375 149.25 179.421875 149.535156 C 179.734375 149.824219 179.976562 150.164062 180.152344 150.546875 C 180.328125 150.933594 180.425781 151.335938 180.441406 151.757812 L 184.660156 151.25 C 184.644531 150.789062 184.582031 150.335938 184.476562 149.886719 C 184.367188 149.4375 184.21875 149 184.027344 148.582031 C 183.832031 148.160156 183.601562 147.765625 183.328125 147.390625 C 183.058594 147.015625 182.75 146.671875 182.410156 146.355469 C 182.070312 146.039062 181.703125 145.761719 181.308594 145.519531 C 180.914062 145.277344 180.496094 145.074219 180.0625 144.914062 C 179.625 144.75 179.179688 144.632812 178.722656 144.558594 C 178.261719 144.484375 177.800781 144.453125 177.335938 144.472656 C 176.871094 144.488281 176.410156 144.546875 175.960938 144.652344 C 175.507812 144.757812 175.070312 144.910156 174.644531 145.097656 C 174.222656 145.289062 173.824219 145.519531 173.445312 145.792969 C 173.066406 146.0625 172.71875 146.363281 172.402344 146.703125 C 172.085938 147.039062 171.804688 147.40625 171.5625 147.796875 C 171.316406 148.1875 171.113281 148.601562 170.949219 149.035156 C 170.785156 149.464844 170.667969 149.910156 170.59375 150.367188 C 170.519531 150.820312 170.488281 151.28125 170.503906 151.742188 C 170.519531 152.203125 170.582031 152.65625 170.6875 153.105469 C 170.796875 153.554688 170.945312 153.992188 171.136719 154.410156 C 171.332031 154.832031 171.5625 155.226562 171.835938 155.601562 C 172.105469 155.976562 172.410156 156.320312 172.75 156.636719 C 173.09375 156.953125 173.460938 157.230469 173.855469 157.472656 C 174.25 157.714844 174.664062 157.917969 175.101562 158.082031 C 175.535156 158.242188 175.984375 158.359375 176.441406 158.433594 C 176.902344 158.507812 177.363281 158.539062 177.828125 158.523438 " fill-opacity="1" fill-rule="nonzero"/><path fill="#f2ce80" d="M 175.902344 142.507812 L 178.894531 142.507812 L 178.894531 171.0625 L 175.902344 171.0625 Z M 175.902344 142.507812 " fill-opacity="1" fill-rule="nonzero"/><g clip-path="url(#772bf5d382)"><path fill="#178768" d="M 162.765625 114.464844 C 162.660156 114.253906 162.601562 114.035156 162.59375 113.800781 C 162.585938 113.5625 162.628906 113.339844 162.722656 113.121094 C 162.816406 112.90625 162.949219 112.71875 163.125 112.5625 C 163.300781 112.40625 163.5 112.292969 163.726562 112.222656 C 165.5625 111.652344 167.429688 111.480469 169.339844 111.707031 C 174.871094 112.398438 176.222656 116.363281 181.167969 116.925781 C 186.808594 117.554688 190.507812 113.019531 191.671875 114.097656 C 192.5 114.871094 191.523438 118.050781 184.726562 127.738281 C 184.394531 128.210938 183.9375 128.4375 183.355469 128.421875 L 170.582031 128.042969 C 170.285156 128.03125 170.015625 127.949219 169.765625 127.792969 C 169.515625 127.636719 169.324219 127.425781 169.191406 127.164062 Z M 162.765625 114.464844 " fill-opacity="1" fill-rule="nonzero"/></g></svg>