<?xml version="1.0" encoding="iso-8859-1"?>
<!-- Uploaded to: SVG Repo, www.svgrepo.com, Generator: SVG Repo Mixer Tools -->
<svg height="800px" width="800px" version="1.1" id="Layer_1" xmlns="http://www.w3.org/2000/svg" xmlns:xlink="http://www.w3.org/1999/xlink" 
	 viewBox="0 0 392.598 392.598" xml:space="preserve">
<path style="fill:#FFFFFF;" d="M370.812,275.071c0-52.687-42.861-95.677-95.677-95.677s-95.612,42.99-95.612,95.677
	s42.861,95.677,95.677,95.677S370.812,327.887,370.812,275.071z"/>
<path style="fill:#56ACE0;" d="M200.275,184.76c-0.259-0.129-0.453-0.323-0.646-0.453c-9.438-5.624-19.459-10.279-29.931-13.705
	l-38.335,67.232c-4.202,7.37-14.739,7.37-18.941,0L74.15,170.537c-10.408,3.491-20.493,8.016-29.931,13.705
	c-13.834,8.275-22.432,23.337-22.432,39.434v43.442H158.19C160.388,234.085,176.226,204.671,200.275,184.76z"/>
<g>
	<path style="fill:#FFC10D;" d="M275.135,201.374c-40.663,0-73.762,33.034-73.762,73.762c0,40.663,33.099,73.826,73.826,73.826
		s73.826-33.164,73.762-73.826C348.962,234.537,315.798,201.374,275.135,201.374z"/>
	<path style="fill:#FFC10D;" d="M121.794,21.786c-23.208,0-42.02,18.877-42.02,42.02c0,23.208,18.877,42.02,42.02,42.02
		s42.02-18.877,42.02-42.02S144.937,21.786,121.794,21.786z"/>
</g>
<g>
	<path style="fill:#194F82;" d="M275.135,157.608c-20.17,0-39.176,5.107-55.79,14.158c-2.715-2.327-5.624-4.396-8.598-6.206
		c-13.511-8.145-28.121-14.287-43.442-18.489c-4.784-1.293-9.891,0.776-12.347,5.107l-33.164,58.182l-33.099-58.182
		c-2.457-4.331-7.499-6.4-12.347-5.107c-15.321,4.202-29.931,10.343-43.442,18.489C12.606,177.713,0,199.952,0,223.612v54.303
		c0,6.012,4.848,10.925,10.925,10.925h147.653c6.788,58.311,56.501,103.693,116.558,103.693
		c64.776,0,117.463-52.687,117.463-117.463S339.911,157.608,275.135,157.608z M158.19,266.99H21.851v-43.378
		c0-15.968,8.598-31.095,22.432-39.434c9.438-5.624,19.459-10.279,29.931-13.705l38.335,67.297c4.202,7.37,14.739,7.37,18.941,0
		l38.335-67.297c10.408,3.491,20.493,8.016,29.931,13.705c0.259,0.129,0.453,0.323,0.646,0.453
		C176.226,204.606,160.388,233.956,158.19,266.99z M275.135,370.747c-52.752,0-95.612-42.861-95.612-95.677
		c0-52.687,42.861-95.677,95.677-95.677s95.612,42.99,95.612,95.677S327.952,370.747,275.135,370.747z"/>
	<path style="fill:#194F82;" d="M275.135,243.2c5.818,0,10.537,4.719,10.537,10.537c0,6.012,4.848,10.925,10.925,10.925
		c6.077,0,10.925-4.848,10.925-10.925c0-13.964-8.986-25.859-21.398-30.384v-4.202c0-6.012-4.848-10.925-10.925-10.925
		c-6.012,0-10.925,4.848-10.925,10.925v4.202c-12.412,4.461-21.398,16.356-21.398,30.384c0,17.778,14.481,32.323,32.323,32.323
		c5.818,0,10.537,4.719,10.537,10.537s-4.719,10.537-10.537,10.537c-5.818,0-10.537-4.719-10.537-10.537
		c0-6.012-4.848-10.925-10.925-10.925c-6.012,0-10.925,4.848-10.925,10.925c0,13.964,8.986,25.859,21.398,30.384v4.202
		c0,6.012,4.848,10.925,10.925,10.925c6.077,0,10.925-4.848,10.925-10.925v-4.331c12.412-4.461,21.398-16.356,21.398-30.384
		c0-17.778-14.481-32.323-32.323-32.323c-5.818,0-10.537-4.719-10.537-10.537S269.382,243.2,275.135,243.2z"/>
	<path style="fill:#194F82;" d="M121.794,127.677c35.168,0,63.806-28.638,63.806-63.806c0.065-35.168-28.574-63.806-63.806-63.806
		c-35.168,0-63.806,28.638-63.806,63.806C57.923,99.038,86.626,127.677,121.794,127.677z M121.794,21.851
		c23.208,0,42.02,18.877,42.02,42.02s-18.877,42.02-42.02,42.02s-42.02-18.877-42.02-42.02S98.586,21.851,121.794,21.851z"/>
</g>
</svg>