<svg xmlns="http://www.w3.org/2000/svg" xmlns:xlink="http://www.w3.org/1999/xlink" width="500" zoomAndPan="magnify" viewBox="0 0 375 374.999991" height="500" preserveAspectRatio="xMidYMid meet" version="1.0"><defs><clipPath id="5fab574cc7"><path d="M 148.84375 131.101562 L 226.09375 131.101562 L 226.09375 243.601562 L 148.84375 243.601562 Z M 148.84375 131.101562 " clip-rule="nonzero"/></clipPath></defs><path fill="#f50303" d="M 199.644531 133.382812 L 157.675781 133.382812 C 154.015625 133.382812 151.050781 136.347656 151.050781 140.007812 L 151.050781 234.988281 C 151.050781 238.648438 154.015625 241.613281 157.675781 241.613281 L 217.316406 241.613281 C 220.976562 241.613281 223.941406 238.648438 223.941406 234.988281 L 223.941406 157.679688 Z M 199.644531 133.382812 " fill-opacity="1" fill-rule="nonzero"/><path fill="#f7bc2b" d="M 168.722656 230.570312 C 165.0625 230.570312 162.09375 227.605469 162.09375 223.945312 L 162.09375 204.066406 C 164.917969 204.066406 210.074219 204.066406 212.898438 204.066406 L 212.898438 223.945312 C 212.898438 227.605469 209.929688 230.570312 206.269531 230.570312 C 196.191406 230.570312 174.832031 230.570312 168.722656 230.570312 Z M 168.722656 230.570312 " fill-opacity="1" fill-rule="nonzero"/><path fill="#fbd642" d="M 206.269531 177.558594 C 209.929688 177.558594 212.898438 180.527344 212.898438 184.183594 L 212.898438 204.066406 C 210.074219 204.066406 164.917969 204.066406 162.09375 204.066406 L 162.09375 184.183594 C 162.09375 180.527344 165.0625 177.558594 168.722656 177.558594 C 177.628906 177.558594 198.441406 177.558594 206.269531 177.558594 Z M 206.269531 177.558594 " fill-opacity="1" fill-rule="nonzero"/><path fill="#7bcc31" d="M 198.539062 155.472656 C 198.539062 156.195312 198.46875 156.914062 198.328125 157.625 C 198.1875 158.335938 197.976562 159.027344 197.699219 159.695312 C 197.421875 160.367188 197.082031 161.003906 196.679688 161.605469 C 196.277344 162.210938 195.816406 162.765625 195.304688 163.28125 C 194.792969 163.792969 194.234375 164.25 193.632812 164.652344 C 193.027344 165.054688 192.390625 165.398438 191.722656 165.675781 C 191.050781 165.953125 190.363281 166.160156 189.652344 166.300781 C 188.941406 166.445312 188.222656 166.515625 187.496094 166.515625 C 186.769531 166.515625 186.054688 166.445312 185.339844 166.300781 C 184.628906 166.160156 183.941406 165.953125 183.269531 165.675781 C 182.601562 165.398438 181.964844 165.054688 181.359375 164.652344 C 180.757812 164.25 180.199219 163.792969 179.6875 163.28125 C 179.175781 162.765625 178.714844 162.210938 178.3125 161.605469 C 177.910156 161.003906 177.570312 160.367188 177.292969 159.695312 C 177.015625 159.027344 176.804688 158.335938 176.664062 157.625 C 176.523438 156.914062 176.453125 156.195312 176.453125 155.472656 C 176.453125 154.746094 176.523438 154.027344 176.664062 153.316406 C 176.804688 152.605469 177.015625 151.914062 177.292969 151.246094 C 177.570312 150.574219 177.910156 149.9375 178.3125 149.335938 C 178.714844 148.730469 179.175781 148.175781 179.6875 147.660156 C 180.199219 147.148438 180.757812 146.691406 181.359375 146.289062 C 181.964844 145.886719 182.601562 145.546875 183.269531 145.265625 C 183.941406 144.988281 184.628906 144.78125 185.339844 144.640625 C 186.054688 144.496094 186.769531 144.425781 187.496094 144.425781 C 188.222656 144.425781 188.941406 144.496094 189.652344 144.640625 C 190.363281 144.78125 191.050781 144.988281 191.722656 145.265625 C 192.390625 145.546875 193.027344 145.886719 193.632812 146.289062 C 194.234375 146.691406 194.792969 147.148438 195.304688 147.660156 C 195.816406 148.175781 196.277344 148.730469 196.679688 149.335938 C 197.082031 149.9375 197.421875 150.574219 197.699219 151.246094 C 197.976562 151.914062 198.1875 152.605469 198.328125 153.316406 C 198.46875 154.027344 198.539062 154.746094 198.539062 155.472656 Z M 198.539062 155.472656 " fill-opacity="1" fill-rule="nonzero"/><path fill="#000000" d="M 187.496094 142.21875 C 180.1875 142.21875 174.242188 148.164062 174.242188 155.472656 C 174.242188 162.777344 180.1875 168.722656 187.496094 168.722656 C 194.804688 168.722656 200.75 162.777344 200.75 155.472656 C 200.75 148.164062 194.804688 142.21875 187.496094 142.21875 Z M 187.496094 164.304688 C 182.625 164.304688 178.660156 160.34375 178.660156 155.472656 C 178.660156 150.597656 182.625 146.636719 187.496094 146.636719 C 192.367188 146.636719 196.332031 150.597656 196.332031 155.472656 C 196.332031 160.34375 192.367188 164.304688 187.496094 164.304688 Z M 187.496094 164.304688 " fill-opacity="1" fill-rule="nonzero"/><g clip-path="url(#5fab574cc7)"><path fill="#000000" d="M 225.503906 156.117188 L 201.207031 131.820312 C 200.792969 131.40625 200.230469 131.175781 199.644531 131.175781 L 157.675781 131.175781 C 152.804688 131.175781 148.84375 135.136719 148.84375 140.007812 L 148.84375 234.988281 C 148.84375 239.859375 152.804688 243.824219 157.675781 243.824219 L 217.316406 243.824219 C 222.1875 243.824219 226.152344 239.859375 226.152344 234.988281 L 226.152344 157.679688 C 226.152344 157.09375 225.917969 156.53125 225.503906 156.117188 Z M 221.734375 234.988281 C 221.734375 237.425781 219.75 239.40625 217.316406 239.40625 L 157.675781 239.40625 C 155.242188 239.40625 153.257812 237.425781 153.257812 234.988281 L 153.257812 140.007812 C 153.257812 137.574219 155.242188 135.589844 157.675781 135.589844 L 198.730469 135.589844 L 221.734375 158.59375 Z M 221.734375 234.988281 " fill-opacity="1" fill-rule="nonzero"/></g><path fill="#000000" d="M 168.722656 175.351562 C 163.847656 175.351562 159.886719 179.3125 159.886719 184.183594 L 159.886719 223.945312 C 159.886719 228.816406 163.847656 232.78125 168.722656 232.78125 L 206.269531 232.78125 C 211.144531 232.78125 215.105469 228.816406 215.105469 223.945312 L 215.105469 184.183594 C 215.105469 179.3125 211.144531 175.351562 206.269531 175.351562 Z M 206.269531 228.363281 L 189.703125 228.363281 L 189.703125 217.472656 C 189.703125 216.253906 188.714844 215.265625 187.496094 215.265625 C 186.277344 215.265625 185.289062 216.253906 185.289062 217.472656 L 185.289062 228.363281 L 168.722656 228.363281 C 166.285156 228.363281 164.304688 226.378906 164.304688 223.945312 L 164.304688 206.273438 L 173.140625 206.273438 L 173.140625 217.628906 C 173.140625 218.847656 174.128906 219.839844 175.347656 219.839844 C 176.566406 219.839844 177.554688 218.847656 177.554688 217.628906 L 177.554688 206.273438 L 197.4375 206.273438 L 197.4375 217.628906 C 197.4375 218.847656 198.425781 219.839844 199.644531 219.839844 C 200.863281 219.839844 201.851562 218.847656 201.851562 217.628906 L 201.851562 206.273438 L 210.6875 206.273438 L 210.6875 223.945312 C 210.6875 226.378906 208.707031 228.363281 206.269531 228.363281 Z M 210.6875 184.183594 L 210.6875 201.855469 L 189.703125 201.855469 L 189.703125 190.8125 C 189.703125 189.59375 188.714844 188.601562 187.496094 188.601562 C 186.277344 188.601562 185.289062 189.59375 185.289062 190.8125 L 185.289062 201.855469 L 164.304688 201.855469 L 164.304688 184.183594 C 164.304688 181.75 166.285156 179.769531 168.722656 179.769531 L 173.140625 179.769531 L 173.140625 190.8125 C 173.140625 192.03125 174.128906 193.019531 175.347656 193.019531 C 176.566406 193.019531 177.554688 192.03125 177.554688 190.8125 L 177.554688 179.769531 L 197.4375 179.769531 L 197.4375 190.8125 C 197.4375 192.03125 198.425781 193.019531 199.644531 193.019531 C 200.863281 193.019531 201.851562 192.03125 201.851562 190.8125 L 201.851562 179.769531 L 206.269531 179.769531 C 208.707031 179.769531 210.6875 181.75 210.6875 184.183594 Z M 210.6875 184.183594 " fill-opacity="1" fill-rule="nonzero"/></svg>