<svg xmlns="http://www.w3.org/2000/svg" xmlns:xlink="http://www.w3.org/1999/xlink" width="500" zoomAndPan="magnify" viewBox="0 0 375 374.999991" height="500" preserveAspectRatio="xMidYMid meet" version="1.0"><path fill="#ff742c" d="M 232.632812 220.257812 C 233.464844 220.582031 234.386719 220.742188 235.332031 220.742188 C 239.558594 220.742188 242.976562 217.328125 242.976562 213.101562 C 242.976562 210.054688 241.195312 207.421875 238.613281 206.199219 C 236.003906 207.445312 233.742188 210.214844 232.769531 213.792969 C 232.148438 216.078125 232.148438 218.320312 232.632812 220.257812 Z M 232.632812 220.257812 " fill-opacity="1" fill-rule="nonzero"/><path fill="#ff742c" d="M 181.035156 233.925781 C 181.867188 234.25 182.789062 234.410156 183.734375 234.410156 C 187.960938 234.410156 191.378906 230.992188 191.378906 226.769531 C 191.378906 223.722656 189.601562 221.089844 187.015625 219.867188 C 184.40625 221.113281 182.144531 223.882812 181.171875 227.460938 C 180.550781 229.722656 180.550781 231.960938 181.035156 233.925781 Z M 181.035156 233.925781 " fill-opacity="1" fill-rule="nonzero"/><path fill="#000000" d="M 181.035156 233.925781 C 181.75 236.855469 183.597656 239.121094 186.183594 239.835938 C 187.152344 240.089844 188.167969 240.113281 189.136719 239.925781 C 192.460938 239.257812 195.578125 236.09375 196.757812 231.730469 C 197.542969 228.800781 197.332031 225.914062 196.339844 223.652344 C 195.417969 221.527344 193.824219 219.957031 191.746094 219.402344 C 190.152344 218.964844 188.515625 219.195312 187.015625 219.933594 C 189.601562 221.160156 191.378906 223.789062 191.378906 226.835938 C 191.378906 231.0625 187.960938 234.480469 183.734375 234.480469 C 182.789062 234.410156 181.867188 234.25 181.035156 233.925781 Z M 181.035156 233.925781 " fill-opacity="1" fill-rule="nonzero"/><path fill="#ccd6dd" d="M 220.90625 221.667969 C 236.742188 230.023438 240.621094 226.351562 240.734375 226.261719 C 239.765625 226.445312 238.75 226.445312 237.78125 226.167969 C 235.195312 225.476562 233.347656 223.191406 232.632812 220.257812 C 232.148438 218.320312 232.148438 216.078125 232.769531 213.816406 C 233.742188 210.238281 236.003906 207.46875 238.613281 206.222656 C 240.136719 205.484375 241.773438 205.273438 243.34375 205.691406 C 245.421875 206.246094 247.015625 207.835938 247.9375 209.9375 C 245.539062 197.863281 216.65625 192.761719 216.65625 192.761719 C 216.65625 192.761719 209.683594 194.726562 204.90625 202.019531 C 200.128906 209.316406 204.835938 213.171875 220.90625 221.667969 Z M 220.90625 221.667969 " fill-opacity="1" fill-rule="nonzero"/><path fill="#ccd6dd" d="M 140.542969 182.167969 C 139.066406 182.558594 137.632812 181.3125 137.773438 179.789062 C 138.050781 176.742188 139.574219 170.460938 147.007812 165.820312 C 157.164062 159.496094 164.136719 156.957031 164.066406 161.964844 C 164.019531 166.121094 147.492188 180.367188 140.542969 182.167969 Z M 140.542969 182.167969 " fill-opacity="1" fill-rule="nonzero"/><path fill="#1562e7" d="M 137.425781 183.019531 C 136.433594 182.1875 135.925781 180.917969 136.039062 179.625 C 136.363281 176.046875 138.09375 169.308594 146.082031 164.34375 C 158.226562 156.792969 161.964844 157.046875 163.882812 158.132812 C 164.78125 158.640625 165.84375 159.726562 165.820312 161.988281 C 165.773438 165.40625 159.679688 171.152344 156.03125 174.269531 C 151.460938 178.195312 145.113281 182.789062 140.980469 183.851562 C 140.65625 183.945312 140.335938 183.96875 140.011719 183.96875 C 139.066406 183.96875 138.140625 183.644531 137.425781 183.019531 Z M 140.101562 180.480469 C 142.964844 179.742188 148.414062 176.210938 153.679688 171.707031 C 160.117188 166.191406 162.289062 162.75 162.335938 161.941406 C 162.335938 161.527344 162.265625 161.226562 162.171875 161.15625 C 161.941406 161.019531 159.542969 160.074219 147.929688 167.296875 C 141.234375 171.476562 139.78125 177.019531 139.503906 179.925781 C 139.480469 180.15625 139.59375 180.296875 139.6875 180.367188 C 139.757812 180.433594 139.917969 180.527344 140.101562 180.480469 Z M 140.101562 180.480469 " fill-opacity="1" fill-rule="nonzero"/><path fill="#1562e7" d="M 237.320312 227.851562 C 234.226562 227.023438 231.847656 224.34375 230.945312 220.695312 C 230.785156 220.074219 230.992188 219.402344 231.476562 218.964844 C 231.960938 218.527344 232.65625 218.410156 233.253906 218.640625 C 233.925781 218.894531 234.617188 219.011719 235.355469 219.011719 C 238.613281 219.011719 241.242188 216.355469 241.242188 213.125 C 241.242188 210.863281 239.925781 208.761719 237.871094 207.792969 C 237.273438 207.515625 236.878906 206.890625 236.878906 206.222656 C 236.878906 205.550781 237.273438 204.929688 237.871094 204.652344 C 239.835938 203.707031 241.890625 203.496094 243.828125 204.027344 C 246.34375 204.722656 248.378906 206.566406 249.554688 209.269531 C 249.554688 209.292969 249.554688 209.292969 249.578125 209.316406 C 250.753906 212.039062 250.941406 215.316406 250.0625 218.527344 C 248.722656 223.421875 245.261719 227.089844 241.195312 227.96875 C 241.175781 227.96875 241.128906 227.992188 241.105469 227.992188 C 240.550781 228.109375 239.996094 228.152344 239.441406 228.152344 C 238.703125 228.128906 238.011719 228.039062 237.320312 227.851562 Z M 240.390625 224.550781 C 243.160156 224 245.699219 221.203125 246.667969 217.601562 C 247.316406 215.179688 247.199219 212.664062 246.34375 210.675781 C 246.34375 210.65625 246.324219 210.65625 246.324219 210.632812 C 245.582031 208.945312 244.359375 207.792969 242.882812 207.398438 C 242.8125 207.375 242.765625 207.375 242.699219 207.351562 C 243.96875 208.96875 244.707031 211 244.707031 213.148438 C 244.707031 218.273438 240.597656 222.429688 235.496094 222.519531 C 236.210938 223.511719 237.15625 224.207031 238.242188 224.507812 C 238.910156 224.691406 239.605469 224.714844 240.320312 224.574219 C 240.34375 224.550781 240.367188 224.550781 240.390625 224.550781 Z M 240.390625 224.550781 " fill-opacity="1" fill-rule="nonzero"/><path fill="#1562e7" d="M 220.097656 223.214844 C 208.53125 217.09375 202.828125 213.378906 201.628906 208.714844 C 201.027344 206.335938 201.605469 203.914062 203.453125 201.097656 C 208.53125 193.363281 215.871094 191.214844 216.195312 191.125 C 216.449219 191.054688 216.703125 191.03125 216.980469 191.078125 C 217.28125 191.125 224.4375 192.417969 232.007812 195.210938 C 242.582031 199.132812 248.539062 203.984375 249.648438 209.617188 C 249.832031 210.492188 249.300781 211.347656 248.46875 211.625 C 247.613281 211.902344 246.714844 211.460938 246.34375 210.65625 C 245.605469 208.945312 244.382812 207.792969 242.882812 207.375 C 241.773438 207.074219 240.550781 207.214844 239.351562 207.792969 C 237.089844 208.875 235.242188 211.300781 234.433594 214.277344 C 233.925781 216.195312 233.878906 218.109375 234.292969 219.84375 C 234.894531 222.289062 236.324219 223.976562 238.21875 224.484375 C 238.910156 224.667969 239.628906 224.691406 240.367188 224.550781 C 241.128906 224.390625 241.890625 224.761719 242.234375 225.429688 C 242.605469 226.097656 242.46875 226.929688 241.9375 227.484375 C 241.542969 227.851562 240.25 228.871094 237.203125 228.871094 C 233.925781 228.871094 228.570312 227.691406 220.097656 223.214844 Z M 216.796875 194.5625 C 215.410156 195.046875 210.148438 197.21875 206.382812 202.964844 C 204.699219 205.527344 204.789062 206.960938 205.019531 207.816406 C 205.898438 211.183594 211.578125 214.742188 221.757812 220.121094 C 226.605469 222.683594 230.230469 224.042969 232.886719 224.761719 C 232.007812 223.628906 231.363281 222.242188 230.96875 220.695312 C 230.394531 218.386719 230.4375 215.847656 231.109375 213.378906 C 232.171875 209.453125 234.710938 206.199219 237.871094 204.675781 C 238.980469 204.144531 240.136719 203.84375 241.265625 203.773438 C 234.433594 198.789062 222.566406 195.648438 216.796875 194.5625 Z M 220.90625 221.667969 Z M 220.90625 221.667969 " fill-opacity="1" fill-rule="nonzero"/><path fill="#1562e7" d="M 232.007812 221.898438 C 231.476562 221.691406 231.085938 221.25 230.945312 220.695312 C 230.371094 218.386719 230.417969 215.847656 231.085938 213.378906 C 232.148438 209.453125 234.6875 206.199219 237.851562 204.675781 C 238.335938 204.445312 238.867188 204.445312 239.351562 204.675781 C 242.605469 206.222656 244.707031 209.546875 244.707031 213.148438 C 244.707031 218.320312 240.503906 222.519531 235.332031 222.519531 C 234.179688 222.496094 233.070312 222.289062 232.007812 221.898438 Z M 232.632812 220.257812 Z M 234.457031 214.277344 C 234.039062 215.847656 233.925781 217.417969 234.132812 218.894531 C 234.523438 218.988281 234.917969 219.011719 235.332031 219.011719 C 238.589844 219.011719 241.21875 216.355469 241.21875 213.125 C 241.21875 211.140625 240.203125 209.292969 238.589844 208.207031 C 236.695312 209.429688 235.171875 211.648438 234.457031 214.277344 Z M 234.457031 214.277344 " fill-opacity="1" fill-rule="nonzero"/><path fill="#ccd6dd" d="M 247.359375 167.34375 C 247.359375 167.34375 260.195312 151.902344 265.4375 150.769531 C 270.679688 149.636719 270.378906 170.414062 263.960938 175.910156 C 257.566406 181.425781 260.175781 179.164062 260.175781 179.164062 L 253.617188 179.164062 Z M 247.359375 167.34375 " fill-opacity="1" fill-rule="nonzero"/><path fill="#1562e7" d="M 254.449219 184.589844 C 253.917969 184.429688 253.480469 184.035156 253.292969 183.503906 L 252.023438 179.878906 L 245.8125 168.175781 C 245.492188 167.554688 245.558594 166.789062 246.023438 166.238281 C 248.238281 163.582031 259.527344 150.285156 265.066406 149.082031 C 265.921875 148.898438 268.070312 148.785156 269.5 151.644531 C 272.15625 156.980469 271.023438 171.640625 265.207031 176.648438 C 258.835938 182.121094 256.109375 184.222656 255.996094 184.3125 C 255.695312 184.542969 255.324219 184.660156 254.933594 184.660156 C 254.773438 184.660156 254.609375 184.636719 254.449219 184.589844 Z M 265.808594 152.476562 C 262.574219 153.171875 254.378906 161.757812 249.4375 167.574219 L 255.164062 178.378906 C 255.210938 178.449219 255.234375 178.542969 255.257812 178.609375 L 255.765625 180.042969 C 257.21875 178.84375 259.574219 176.902344 262.921875 174.015625 C 266.570312 170.878906 268.160156 161.25 267.054688 155.386719 C 266.636719 153.171875 265.992188 152.523438 265.851562 152.476562 C 265.851562 152.476562 265.828125 152.476562 265.808594 152.476562 Z M 265.808594 152.476562 " fill-opacity="1" fill-rule="nonzero"/><path fill="#000000" d="M 238.613281 193.386719 C 247.984375 192.855469 261.027344 188.605469 265.992188 185.328125 C 263.753906 183.621094 261.8125 181.542969 260.195312 179.1875 C 259.414062 178.035156 258.582031 176.949219 257.703125 175.933594 C 252.09375 176.832031 238.335938 179.234375 235.773438 181.265625 C 232.539062 183.828125 228.660156 193.941406 238.613281 193.386719 Z M 238.613281 193.386719 " fill-opacity="1" fill-rule="nonzero"/><path fill="#ccd6dd" d="M 119.648438 177.894531 C 123.066406 188.285156 131.722656 196.363281 158.320312 206.984375 C 159.65625 207.515625 161.042969 208.070312 162.472656 208.601562 C 192.324219 220.027344 231.433594 219.472656 254.101562 215.59375 C 276.773438 211.714844 281.183594 202.25 277.695312 195.347656 C 275.871094 191.746094 272.0625 188.976562 268.832031 187.152344 C 267.839844 186.597656 266.914062 185.976562 266.015625 185.304688 C 261.050781 188.585938 248.007812 192.832031 238.632812 193.363281 C 228.683594 193.941406 232.539062 183.804688 235.796875 181.242188 C 238.359375 179.210938 252.117188 176.808594 257.726562 175.910156 C 249.738281 166.535156 239.164062 163.050781 233.09375 162.820312 C 225.820312 162.519531 163.144531 172.632812 156.792969 173.648438 C 156.449219 173.695312 156.285156 173.738281 156.285156 173.738281 C 156.285156 173.738281 148.621094 174.640625 145.019531 172.839844 C 138.601562 169.605469 129.207031 151.460938 129.207031 151.460938 C 121.359375 138.671875 118.632812 133.199219 112.144531 134.910156 C 105.660156 136.617188 116.046875 166.976562 119.648438 177.894531 Z M 119.648438 177.894531 " fill-opacity="1" fill-rule="nonzero"/><path fill="#1562e7" d="M 230.925781 191.261719 C 229.421875 187.3125 232.171875 181.914062 234.6875 179.902344 C 237.34375 177.824219 248.515625 175.65625 257.425781 174.226562 C 258.027344 174.132812 258.628906 174.339844 259.019531 174.800781 C 259.941406 175.863281 260.796875 177.019531 261.628906 178.195312 C 263.152344 180.433594 264.976562 182.351562 267.03125 183.921875 C 267.46875 184.265625 267.722656 184.796875 267.722656 185.375 C 267.699219 185.929688 267.421875 186.460938 266.9375 186.761719 C 261.675781 190.246094 248.46875 194.539062 238.703125 195.117188 C 238.402344 195.140625 238.125 195.140625 237.851562 195.140625 C 233.117188 195.140625 231.476562 192.738281 230.925781 191.261719 Z M 238.519531 191.632812 C 246.367188 191.191406 257.242188 187.914062 262.96875 185.027344 C 261.421875 183.597656 260.011719 181.957031 258.765625 180.15625 C 258.210938 179.351562 257.613281 178.566406 257.011719 177.804688 C 243.921875 179.949219 237.988281 181.726562 236.855469 182.628906 C 235.265625 183.875 233.371094 187.84375 234.179688 190.015625 C 234.640625 191.238281 236.09375 191.769531 238.519531 191.632812 Z M 238.519531 191.632812 " fill-opacity="1" fill-rule="nonzero"/><path fill="#ff742c" d="M 119.648438 177.894531 C 123.066406 188.285156 131.722656 196.363281 158.320312 206.984375 C 145.738281 184.566406 156.792969 173.671875 156.792969 173.671875 C 156.449219 173.714844 156.285156 173.761719 156.285156 173.761719 C 156.285156 173.761719 148.621094 174.664062 145.019531 172.863281 C 138.601562 169.628906 129.207031 151.484375 129.207031 151.484375 C 121.359375 138.695312 118.632812 133.222656 112.144531 134.933594 C 105.660156 136.617188 116.046875 166.976562 119.648438 177.894531 Z M 119.648438 177.894531 " fill-opacity="1" fill-rule="nonzero"/><path fill="#1562e7" d="M 157.671875 208.621094 C 132.691406 198.648438 121.933594 190.476562 117.988281 178.449219 C 117.800781 177.894531 117.59375 177.273438 117.386719 176.625 C 110.4375 155.570312 106.375 140.472656 109.214844 135.253906 C 109.929688 133.941406 110.945312 133.429688 111.683594 133.246094 C 118.957031 131.308594 122.328125 136.847656 129.023438 147.859375 C 129.554688 148.714844 130.085938 149.613281 130.660156 150.5625 C 130.683594 150.609375 130.707031 150.628906 130.730469 150.675781 C 133.269531 155.59375 140.933594 168.867188 145.78125 171.316406 C 148.320312 172.609375 154 172.285156 156.011719 172.054688 C 156.078125 172.03125 156.242188 172.007812 156.496094 171.984375 C 157.234375 171.871094 157.972656 172.238281 158.320312 172.910156 C 158.664062 173.578125 158.527344 174.386719 157.996094 174.941406 C 157.972656 174.964844 155.480469 177.527344 154.464844 182.558594 C 153.101562 189.324219 154.949219 197.496094 159.820312 206.175781 C 160.1875 206.820312 160.097656 207.628906 159.609375 208.183594 C 159.265625 208.578125 158.804688 208.785156 158.296875 208.785156 C 158.085938 208.738281 157.878906 208.691406 157.671875 208.621094 Z M 144.210938 174.410156 C 137.5625 171.039062 128.792969 154.484375 127.683594 152.316406 C 127.128906 151.390625 126.574219 150.515625 126.066406 149.660156 C 119.28125 138.558594 117.132812 135.394531 112.585938 136.59375 C 112.539062 136.59375 112.445312 136.640625 112.285156 136.894531 C 111.660156 138.027344 111.085938 141.71875 114.085938 153.632812 C 116.070312 161.503906 118.863281 169.929688 120.6875 175.496094 C 120.894531 176.164062 121.105469 176.765625 121.289062 177.339844 C 124.152344 186.042969 130.867188 193.59375 154.601562 203.566406 C 150.03125 193.664062 150.101562 186.207031 151.117188 181.519531 C 151.648438 179.074219 152.453125 177.132812 153.238281 175.679688 C 150.515625 175.792969 146.683594 175.65625 144.210938 174.410156 Z M 144.210938 174.410156 " fill-opacity="1" fill-rule="nonzero"/><path fill="#ccd6dd" d="M 169.308594 235.332031 C 185.144531 243.691406 189.023438 240.019531 189.136719 239.925781 C 188.167969 240.113281 187.152344 240.113281 186.183594 239.835938 C 183.597656 239.140625 181.75 236.855469 181.035156 233.925781 C 180.550781 231.984375 180.550781 229.746094 181.171875 227.484375 C 182.144531 223.90625 184.40625 221.136719 187.015625 219.890625 C 188.539062 219.148438 190.175781 218.941406 191.746094 219.359375 C 193.824219 219.910156 195.417969 221.503906 196.339844 223.605469 C 193.941406 211.53125 165.058594 206.429688 165.058594 206.429688 C 165.058594 206.429688 158.085938 208.390625 153.308594 215.6875 C 148.53125 222.960938 153.238281 226.835938 169.308594 235.332031 Z M 169.308594 235.332031 " fill-opacity="1" fill-rule="nonzero"/><path fill="#1562e7" d="M 185.722656 241.496094 C 182.628906 240.667969 180.25 237.988281 179.351562 234.339844 C 179.1875 233.71875 179.394531 233.046875 179.878906 232.609375 C 180.367188 232.171875 181.058594 232.054688 181.660156 232.285156 C 182.328125 232.539062 183.019531 232.65625 183.734375 232.65625 C 186.992188 232.65625 189.621094 230 189.621094 226.769531 C 189.621094 224.507812 188.308594 222.40625 186.253906 221.4375 C 185.652344 221.160156 185.261719 220.535156 185.261719 219.867188 C 185.261719 219.195312 185.652344 218.574219 186.253906 218.296875 C 188.214844 217.347656 190.269531 217.140625 192.207031 217.671875 C 194.726562 218.363281 196.757812 220.210938 197.933594 222.914062 C 197.933594 222.9375 197.957031 222.9375 197.957031 222.960938 C 199.132812 225.683594 199.320312 228.960938 198.441406 232.171875 C 197.101562 237.066406 193.640625 240.757812 189.578125 241.613281 C 189.554688 241.613281 189.53125 241.636719 189.484375 241.636719 C 188.929688 241.75 188.375 241.796875 187.824219 241.796875 C 187.105469 241.796875 186.414062 241.707031 185.722656 241.496094 Z M 188.792969 238.195312 C 191.5625 237.640625 194.101562 234.847656 195.070312 231.246094 C 195.71875 228.824219 195.601562 226.308594 194.75 224.320312 C 194.75 224.296875 194.726562 224.296875 194.726562 224.273438 C 193.984375 222.589844 192.761719 221.4375 191.285156 221.042969 C 191.214844 221.019531 191.167969 221.019531 191.101562 220.996094 C 192.371094 222.613281 193.109375 224.644531 193.109375 226.792969 C 193.109375 231.917969 189 236.070312 183.898438 236.164062 C 184.613281 237.15625 185.535156 237.851562 186.644531 238.148438 C 187.3125 238.335938 188.007812 238.359375 188.722656 238.21875 C 188.746094 238.21875 188.769531 238.21875 188.792969 238.195312 Z M 188.792969 238.195312 " fill-opacity="1" fill-rule="nonzero"/><path fill="#1562e7" d="M 180.410156 235.542969 C 179.878906 235.332031 179.488281 234.894531 179.351562 234.339844 C 178.773438 232.03125 178.820312 229.492188 179.488281 227.023438 C 180.550781 223.097656 183.089844 219.84375 186.253906 218.320312 C 186.738281 218.089844 187.269531 218.089844 187.753906 218.320312 C 191.007812 219.867188 193.109375 223.191406 193.109375 226.792969 C 193.109375 231.960938 188.90625 236.164062 183.734375 236.164062 C 182.582031 236.164062 181.472656 235.957031 180.410156 235.542969 Z M 181.035156 233.925781 Z M 182.835938 227.921875 C 182.421875 229.492188 182.304688 231.0625 182.511719 232.539062 C 182.90625 232.632812 183.296875 232.65625 183.714844 232.65625 C 186.96875 232.65625 189.601562 230 189.601562 226.769531 C 189.601562 224.78125 188.585938 222.9375 186.96875 221.851562 C 185.074219 223.097656 183.550781 225.289062 182.835938 227.921875 Z M 182.835938 227.921875 " fill-opacity="1" fill-rule="nonzero"/><path fill="#1562e7" d="M 168.5 236.855469 C 156.933594 230.738281 151.230469 227.023438 150.03125 222.359375 C 149.429688 219.980469 150.007812 217.558594 151.855469 214.742188 C 156.933594 207.007812 164.273438 204.859375 164.597656 204.765625 C 164.851562 204.699219 165.105469 204.675781 165.382812 204.722656 C 165.683594 204.765625 172.839844 206.058594 180.410156 208.855469 C 190.984375 212.777344 196.941406 217.625 198.050781 223.257812 C 198.234375 224.136719 197.703125 224.992188 196.871094 225.269531 C 196.019531 225.542969 195.117188 225.105469 194.75 224.296875 C 194.007812 222.589844 192.785156 221.4375 191.285156 221.019531 C 190.152344 220.71875 188.953125 220.859375 187.753906 221.4375 C 185.492188 222.519531 183.644531 224.945312 182.835938 227.921875 C 182.328125 229.816406 182.28125 231.753906 182.695312 233.488281 C 183.296875 235.933594 184.730469 237.617188 186.621094 238.125 C 187.3125 238.3125 188.03125 238.335938 188.769531 238.195312 C 189.53125 238.035156 190.292969 238.402344 190.640625 239.074219 C 191.007812 239.742188 190.871094 240.574219 190.339844 241.128906 C 189.945312 241.519531 188.652344 242.511719 185.605469 242.511719 C 182.328125 242.535156 176.972656 241.335938 168.5 236.855469 Z M 165.175781 208.230469 C 163.765625 208.738281 158.503906 210.929688 154.738281 216.632812 C 153.054688 219.195312 153.148438 220.628906 153.378906 221.480469 C 154.253906 224.851562 159.933594 228.40625 170.117188 233.785156 C 174.964844 236.347656 178.589844 237.710938 181.242188 238.425781 C 180.367188 237.296875 179.71875 235.910156 179.328125 234.363281 C 178.75 232.054688 178.796875 229.515625 179.464844 227.046875 C 180.527344 223.121094 183.066406 219.867188 186.230469 218.34375 C 187.335938 217.8125 188.492188 217.511719 189.621094 217.441406 C 182.835938 212.457031 170.96875 209.292969 165.175781 208.230469 Z M 169.308594 235.332031 Z M 169.308594 235.332031 " fill-opacity="1" fill-rule="nonzero"/><path fill="#1562e7" d="M 189.136719 240.921875 C 189.390625 240.921875 189.644531 240.828125 189.832031 240.644531 C 190.246094 240.25 190.246094 239.605469 189.878906 239.210938 C 189.484375 238.796875 188.839844 238.796875 188.445312 239.164062 C 188.03125 239.558594 188.007812 240.203125 188.398438 240.597656 C 188.585938 240.828125 188.859375 240.921875 189.136719 240.921875 Z M 189.136719 240.921875 " fill-opacity="1" fill-rule="nonzero"/><path fill="#1562e7" d="M 240.734375 227.992188 C 241.175781 227.992188 241.636719 227.832031 241.960938 227.484375 C 242.628906 226.816406 242.628906 225.707031 241.960938 225.015625 C 241.289062 224.34375 240.179688 224.34375 239.488281 225.015625 C 238.820312 225.683594 238.796875 226.792969 239.488281 227.484375 C 239.835938 227.832031 240.296875 227.992188 240.734375 227.992188 Z M 240.734375 227.992188 " fill-opacity="1" fill-rule="nonzero"/><path fill="#1562e7" d="M 161.851562 210.238281 C 147.050781 204.558594 136.964844 199.550781 130.152344 194.449219 C 123.804688 189.691406 120.066406 184.773438 117.988281 178.425781 C 117.800781 177.871094 117.59375 177.25 117.386719 176.578125 C 110.4375 155.570312 106.375 140.472656 109.214844 135.253906 C 109.929688 133.941406 110.945312 133.429688 111.683594 133.246094 C 118.957031 131.332031 122.304688 136.871094 129.023438 147.859375 C 129.554688 148.714844 130.105469 149.613281 130.683594 150.5625 C 130.707031 150.609375 130.730469 150.628906 130.753906 150.675781 C 133.292969 155.59375 140.957031 168.867188 145.804688 171.316406 C 148.34375 172.609375 154.023438 172.285156 156.03125 172.054688 C 159.378906 171.523438 225.429688 160.8125 233.164062 161.113281 C 239.558594 161.367188 252.742188 165.246094 261.652344 178.21875 C 263.796875 181.335938 266.570312 183.921875 269.683594 185.675781 C 274.371094 188.332031 277.605469 191.332031 279.242188 194.609375 C 280.882812 197.863281 280.90625 201.398438 279.289062 204.582031 C 277.140625 208.832031 271.070312 214.507812 254.378906 217.347656 C 244.960938 218.964844 233.761719 219.910156 221.945312 219.910156 C 201.789062 219.890625 179.835938 217.140625 161.851562 210.238281 Z M 156.539062 175.472656 C 156.519531 175.472656 156.496094 175.472656 156.472656 175.472656 C 155.640625 175.5625 148.183594 176.394531 144.210938 174.386719 C 137.5625 171.039062 128.792969 154.484375 127.683594 152.316406 C 127.105469 151.390625 126.574219 150.515625 126.066406 149.660156 C 119.28125 138.558594 117.132812 135.394531 112.585938 136.59375 C 112.539062 136.59375 112.445312 136.640625 112.285156 136.894531 C 111.660156 138.027344 111.085938 141.71875 114.085938 153.632812 C 116.070312 161.503906 118.863281 169.929688 120.6875 175.496094 C 120.894531 176.164062 121.105469 176.765625 121.289062 177.339844 C 124.449219 186.96875 132.53125 195.277344 163.074219 206.960938 C 191.007812 217.648438 228.753906 218.132812 253.777344 213.863281 C 269.847656 211.117188 274.695312 205.851562 276.148438 202.945312 C 277.558594 200.148438 276.886719 197.679688 276.101562 196.109375 C 274.441406 192.808594 270.746094 190.222656 267.929688 188.652344 C 264.375 186.644531 261.191406 183.691406 258.742188 180.132812 C 255.304688 175.101562 250.640625 170.96875 245.285156 168.175781 C 239.398438 165.105469 234.734375 164.621094 233 164.550781 C 232.910156 164.550781 232.792969 164.550781 232.703125 164.550781 C 225.613281 164.574219 180.019531 171.660156 156.539062 175.472656 Z M 156.539062 175.472656 " fill-opacity="1" fill-rule="nonzero"/><path fill="#1562e7" d="M 250.871094 192.925781 C 251.171875 192.925781 251.449219 192.855469 251.722656 192.695312 C 252.554688 192.230469 252.855469 191.167969 252.394531 190.316406 L 245.375 177.804688 C 244.914062 176.972656 243.851562 176.671875 242.996094 177.132812 C 242.167969 177.59375 241.867188 178.65625 242.328125 179.511719 L 249.347656 192.023438 C 249.667969 192.601562 250.269531 192.925781 250.871094 192.925781 Z M 250.871094 192.925781 " fill-opacity="1" fill-rule="nonzero"/><path fill="#000000" d="M 210.261719 183.585938 C 210.492188 183.621094 210.714844 183.695312 210.929688 183.800781 C 211.144531 183.90625 211.347656 184.046875 211.535156 184.222656 C 211.726562 184.394531 211.902344 184.597656 212.0625 184.832031 C 212.21875 185.0625 212.359375 185.320312 212.484375 185.605469 C 212.605469 185.890625 212.703125 186.191406 212.785156 186.515625 C 212.863281 186.835938 212.921875 187.175781 212.953125 187.523438 C 212.988281 187.875 213 188.230469 212.988281 188.59375 C 212.976562 188.960938 212.941406 189.324219 212.882812 189.6875 C 212.824219 190.050781 212.742188 190.40625 212.640625 190.757812 C 212.539062 191.105469 212.417969 191.441406 212.273438 191.761719 C 212.132812 192.085938 211.972656 192.386719 211.796875 192.667969 C 211.617188 192.949219 211.429688 193.207031 211.222656 193.4375 C 211.019531 193.667969 210.804688 193.871094 210.582031 194.042969 C 210.359375 194.210938 210.128906 194.351562 209.894531 194.457031 C 209.65625 194.5625 209.421875 194.628906 209.183594 194.664062 C 208.945312 194.699219 208.710938 194.699219 208.480469 194.660156 C 208.25 194.625 208.027344 194.550781 207.8125 194.445312 C 207.597656 194.339844 207.398438 194.199219 207.207031 194.023438 C 207.015625 193.851562 206.839844 193.648438 206.679688 193.414062 C 206.523438 193.183594 206.382812 192.925781 206.261719 192.640625 C 206.136719 192.359375 206.039062 192.054688 205.957031 191.730469 C 205.878906 191.410156 205.824219 191.070312 205.789062 190.722656 C 205.753906 190.371094 205.742188 190.015625 205.753906 189.652344 C 205.769531 189.285156 205.804688 188.921875 205.863281 188.558594 C 205.917969 188.195312 206 187.839844 206.101562 187.488281 C 206.203125 187.140625 206.328125 186.804688 206.46875 186.484375 C 206.609375 186.160156 206.769531 185.859375 206.945312 185.578125 C 207.125 185.296875 207.3125 185.039062 207.519531 184.808594 C 207.722656 184.578125 207.9375 184.375 208.160156 184.203125 C 208.386719 184.035156 208.613281 183.894531 208.851562 183.789062 C 209.085938 183.683594 209.320312 183.617188 209.558594 183.582031 C 209.796875 183.546875 210.03125 183.546875 210.261719 183.585938 Z M 210.261719 183.585938 " fill-opacity="1" fill-rule="nonzero"/><path fill="#1562e7" d="M 208.253906 196.226562 C 206.777344 195.996094 205.53125 194.910156 204.8125 193.269531 C 204.191406 191.839844 204.003906 190.085938 204.304688 188.308594 C 204.953125 184.3125 207.675781 181.566406 210.539062 182.027344 C 213.402344 182.488281 215.132812 185.976562 214.488281 189.945312 C 213.886719 193.640625 211.484375 196.292969 208.875 196.292969 C 208.667969 196.273438 208.460938 196.273438 208.253906 196.226562 Z M 207.445312 188.816406 C 207.261719 189.992188 207.351562 191.148438 207.746094 192.023438 C 208.023438 192.648438 208.390625 193.039062 208.761719 193.109375 C 209.546875 193.222656 210.953125 191.886719 211.347656 189.460938 C 211.738281 187.039062 210.839844 185.304688 210.03125 185.191406 C 210.007812 185.191406 209.960938 185.191406 209.914062 185.191406 C 209.109375 185.144531 207.816406 186.484375 207.445312 188.816406 Z M 207.445312 188.816406 " fill-opacity="1" fill-rule="nonzero"/><path fill="#000000" d="M 198.425781 183.347656 C 198.632812 183.378906 198.835938 183.445312 199.03125 183.542969 C 199.226562 183.640625 199.410156 183.769531 199.582031 183.925781 C 199.757812 184.082031 199.914062 184.269531 200.0625 184.480469 C 200.207031 184.691406 200.332031 184.925781 200.445312 185.183594 C 200.554688 185.441406 200.644531 185.71875 200.71875 186.011719 C 200.789062 186.304688 200.839844 186.609375 200.871094 186.929688 C 200.902344 187.246094 200.914062 187.574219 200.902344 187.902344 C 200.890625 188.234375 200.859375 188.566406 200.804688 188.894531 C 200.753906 189.226562 200.679688 189.550781 200.585938 189.867188 C 200.492188 190.1875 200.382812 190.492188 200.253906 190.785156 C 200.125 191.078125 199.980469 191.351562 199.820312 191.609375 C 199.65625 191.863281 199.484375 192.097656 199.300781 192.308594 C 199.113281 192.519531 198.917969 192.699219 198.714844 192.855469 C 198.511719 193.011719 198.300781 193.136719 198.089844 193.234375 C 197.875 193.328125 197.660156 193.390625 197.445312 193.425781 C 197.226562 193.457031 197.015625 193.453125 196.804688 193.421875 C 196.597656 193.386719 196.394531 193.320312 196.199219 193.222656 C 196.003906 193.125 195.820312 193 195.644531 192.839844 C 195.472656 192.683594 195.3125 192.5 195.167969 192.289062 C 195.023438 192.074219 194.898438 191.839844 194.785156 191.582031 C 194.675781 191.324219 194.585938 191.050781 194.511719 190.757812 C 194.441406 190.460938 194.386719 190.15625 194.355469 189.835938 C 194.324219 189.519531 194.316406 189.195312 194.328125 188.863281 C 194.339844 188.53125 194.371094 188.203125 194.425781 187.871094 C 194.476562 187.539062 194.550781 187.214844 194.644531 186.898438 C 194.734375 186.582031 194.847656 186.273438 194.976562 185.980469 C 195.105469 185.691406 195.25 185.414062 195.410156 185.160156 C 195.570312 184.902344 195.746094 184.667969 195.929688 184.460938 C 196.117188 184.25 196.3125 184.066406 196.515625 183.910156 C 196.71875 183.753906 196.925781 183.628906 197.140625 183.535156 C 197.355469 183.4375 197.570312 183.375 197.785156 183.34375 C 198 183.3125 198.214844 183.3125 198.425781 183.347656 Z M 198.425781 183.347656 " fill-opacity="1" fill-rule="nonzero"/><path fill="#1562e7" d="M 196.59375 194.839844 C 194.007812 194.425781 192.417969 191.261719 193.015625 187.636719 C 193.59375 184.011719 196.085938 181.496094 198.671875 181.914062 C 201.257812 182.328125 202.851562 185.492188 202.25 189.113281 C 201.71875 192.460938 199.527344 194.886719 197.148438 194.886719 C 196.964844 194.886719 196.78125 194.886719 196.59375 194.839844 Z M 195.855469 188.097656 C 195.511719 190.292969 196.316406 191.886719 197.058594 192 C 197.773438 192.117188 199.066406 190.871094 199.410156 188.675781 C 199.757812 186.484375 198.949219 184.890625 198.210938 184.773438 C 198.1875 184.773438 198.140625 184.773438 198.117188 184.773438 C 197.378906 184.773438 196.203125 186 195.855469 188.097656 Z M 195.855469 188.097656 " fill-opacity="1" fill-rule="nonzero"/><path fill="#000000" d="M 187.265625 183.113281 C 187.65625 183.175781 188.011719 183.355469 188.335938 183.644531 C 188.660156 183.9375 188.921875 184.320312 189.128906 184.796875 C 189.335938 185.273438 189.46875 185.804688 189.527344 186.394531 C 189.585938 186.980469 189.566406 187.578125 189.46875 188.191406 C 189.371094 188.800781 189.199219 189.375 188.960938 189.917969 C 188.722656 190.457031 188.429688 190.921875 188.082031 191.308594 C 187.738281 191.695312 187.367188 191.976562 186.96875 192.152344 C 186.570312 192.328125 186.179688 192.386719 185.789062 192.324219 C 185.398438 192.261719 185.042969 192.082031 184.71875 191.792969 C 184.394531 191.5 184.132812 191.117188 183.925781 190.640625 C 183.71875 190.164062 183.585938 189.632812 183.527344 189.042969 C 183.46875 188.457031 183.488281 187.855469 183.585938 187.246094 C 183.683594 186.636719 183.855469 186.058594 184.09375 185.519531 C 184.332031 184.980469 184.625 184.515625 184.972656 184.128906 C 185.316406 183.742188 185.6875 183.460938 186.085938 183.285156 C 186.484375 183.109375 186.878906 183.050781 187.265625 183.113281 Z M 187.265625 183.113281 " fill-opacity="1" fill-rule="nonzero"/><path fill="#1562e7" d="M 185.582031 193.640625 C 184.359375 193.433594 183.320312 192.554688 182.71875 191.167969 C 182.210938 189.992188 182.050781 188.515625 182.304688 187.039062 C 182.535156 185.558594 183.136719 184.222656 184.011719 183.25 C 185.003906 182.144531 186.277344 181.613281 187.5 181.796875 C 188.722656 182.003906 189.761719 182.882812 190.363281 184.265625 C 190.871094 185.445312 191.03125 186.921875 190.777344 188.398438 C 190.546875 189.875 189.945312 191.214844 189.070312 192.1875 C 188.214844 193.15625 187.152344 193.664062 186.089844 193.664062 C 185.90625 193.6875 185.746094 193.664062 185.582031 193.640625 Z M 185.976562 185.003906 C 185.445312 185.582031 185.074219 186.484375 184.914062 187.453125 C 184.75 188.421875 184.84375 189.390625 185.167969 190.109375 C 185.398438 190.640625 185.699219 190.960938 186.023438 191.007812 C 186.34375 191.054688 186.738281 190.847656 187.105469 190.429688 C 187.636719 189.855469 188.007812 188.953125 188.167969 187.984375 C 188.332031 187.015625 188.238281 186.042969 187.914062 185.328125 C 187.683594 184.796875 187.382812 184.476562 187.058594 184.429688 C 187.039062 184.429688 186.992188 184.429688 186.96875 184.429688 C 186.667969 184.40625 186.296875 184.613281 185.976562 185.003906 Z M 185.976562 185.003906 " fill-opacity="1" fill-rule="nonzero"/><path fill="#000000" d="M 176.1875 182.609375 C 176.550781 182.667969 176.878906 182.832031 177.179688 183.105469 C 177.480469 183.375 177.726562 183.734375 177.917969 184.175781 C 178.109375 184.617188 178.234375 185.113281 178.289062 185.660156 C 178.34375 186.207031 178.324219 186.765625 178.234375 187.335938 C 178.140625 187.902344 177.984375 188.4375 177.761719 188.941406 C 177.539062 189.441406 177.265625 189.875 176.945312 190.234375 C 176.625 190.597656 176.277344 190.859375 175.910156 191.023438 C 175.539062 191.183594 175.171875 191.238281 174.808594 191.179688 C 174.445312 191.121094 174.117188 190.957031 173.816406 190.6875 C 173.515625 190.414062 173.269531 190.058594 173.078125 189.613281 C 172.886719 189.171875 172.761719 188.675781 172.707031 188.128906 C 172.652344 187.582031 172.671875 187.023438 172.761719 186.457031 C 172.855469 185.886719 173.011719 185.351562 173.234375 184.847656 C 173.457031 184.347656 173.730469 183.914062 174.050781 183.554688 C 174.371094 183.195312 174.71875 182.929688 175.085938 182.769531 C 175.457031 182.605469 175.824219 182.550781 176.1875 182.609375 Z M 176.1875 182.609375 " fill-opacity="1" fill-rule="nonzero"/><path fill="#1562e7" d="M 174.617188 192.394531 C 173.460938 192.207031 172.492188 191.378906 171.960938 190.085938 C 171.476562 188.976562 171.339844 187.613281 171.570312 186.230469 C 171.800781 184.84375 172.355469 183.597656 173.164062 182.695312 C 174.085938 181.660156 175.261719 181.171875 176.417969 181.359375 C 177.570312 181.542969 178.542969 182.375 179.074219 183.667969 C 179.558594 184.773438 179.695312 186.136719 179.464844 187.523438 C 179.003906 190.386719 177.15625 192.441406 175.101562 192.441406 C 174.941406 192.441406 174.777344 192.441406 174.617188 192.394531 Z M 174.988281 184.359375 C 174.5 184.914062 174.132812 185.746094 173.992188 186.644531 C 173.855469 187.546875 173.925781 188.445312 174.226562 189.113281 C 174.433594 189.601562 174.734375 189.898438 175.007812 189.945312 C 175.632812 190.039062 176.71875 189 177.019531 187.105469 C 177.15625 186.207031 177.085938 185.304688 176.789062 184.636719 C 176.578125 184.152344 176.28125 183.851562 176.003906 183.804688 C 175.980469 183.804688 175.957031 183.804688 175.910156 183.804688 C 175.632812 183.804688 175.285156 184.011719 174.988281 184.359375 Z M 174.988281 184.359375 " fill-opacity="1" fill-rule="nonzero"/><path fill="#000000" d="M 167.160156 182.792969 C 167.492188 182.847656 167.796875 183 168.074219 183.25 C 168.347656 183.496094 168.574219 183.824219 168.75 184.234375 C 168.925781 184.640625 169.039062 185.097656 169.085938 185.601562 C 169.136719 186.105469 169.121094 186.617188 169.035156 187.140625 C 168.953125 187.664062 168.808594 188.15625 168.601562 188.617188 C 168.398438 189.082031 168.148438 189.476562 167.851562 189.808594 C 167.558594 190.140625 167.242188 190.382812 166.902344 190.535156 C 166.5625 190.683594 166.226562 190.734375 165.894531 190.679688 C 165.5625 190.625 165.257812 190.476562 164.984375 190.226562 C 164.707031 189.976562 164.484375 189.648438 164.308594 189.242188 C 164.132812 188.832031 164.019531 188.378906 163.96875 187.875 C 163.917969 187.371094 163.9375 186.855469 164.019531 186.335938 C 164.105469 185.8125 164.25 185.320312 164.453125 184.855469 C 164.660156 184.394531 164.910156 183.996094 165.203125 183.664062 C 165.496094 183.332031 165.8125 183.089844 166.152344 182.941406 C 166.492188 182.789062 166.828125 182.742188 167.160156 182.792969 Z M 167.160156 182.792969 " fill-opacity="1" fill-rule="nonzero"/><path fill="#1562e7" d="M 165.707031 191.769531 C 164.667969 191.609375 163.765625 190.824219 163.257812 189.667969 C 162.820312 188.652344 162.679688 187.40625 162.890625 186.136719 C 163.097656 184.867188 163.605469 183.734375 164.34375 182.90625 C 165.199219 181.957031 166.28125 181.496094 167.320312 181.679688 C 168.359375 181.84375 169.261719 182.628906 169.769531 183.78125 C 170.207031 184.796875 170.347656 186.042969 170.136719 187.3125 C 169.929688 188.585938 169.421875 189.714844 168.683594 190.546875 C 167.945312 191.378906 167.042969 191.816406 166.144531 191.816406 C 166.007812 191.816406 165.867188 191.792969 165.707031 191.769531 Z M 166.050781 184.40625 C 165.613281 184.914062 165.265625 185.675781 165.152344 186.507812 C 165.011719 187.335938 165.105469 188.167969 165.359375 188.769531 C 165.542969 189.207031 165.820312 189.484375 166.074219 189.53125 C 166.351562 189.578125 166.675781 189.390625 167 189.023438 C 167.4375 188.515625 167.785156 187.753906 167.898438 186.921875 C 168.039062 186.089844 167.945312 185.257812 167.691406 184.660156 C 167.507812 184.222656 167.230469 183.945312 166.976562 183.898438 C 166.953125 183.898438 166.929688 183.898438 166.90625 183.898438 C 166.652344 183.898438 166.328125 184.082031 166.050781 184.40625 Z M 166.050781 184.40625 " fill-opacity="1" fill-rule="nonzero"/><path fill="#000000" d="M 159.207031 182.699219 C 159.492188 182.746094 159.753906 182.875 159.988281 183.085938 C 160.222656 183.296875 160.414062 183.578125 160.566406 183.925781 C 160.714844 184.269531 160.8125 184.65625 160.855469 185.085938 C 160.898438 185.511719 160.882812 185.949219 160.8125 186.394531 C 160.742188 186.839844 160.617188 187.257812 160.445312 187.648438 C 160.269531 188.042969 160.054688 188.378906 159.804688 188.664062 C 159.554688 188.945312 159.28125 189.148438 158.992188 189.277344 C 158.703125 189.40625 158.417969 189.445312 158.132812 189.398438 C 157.847656 189.355469 157.589844 189.226562 157.351562 189.011719 C 157.117188 188.800781 156.925781 188.523438 156.773438 188.175781 C 156.625 187.828125 156.527344 187.441406 156.484375 187.015625 C 156.441406 186.585938 156.457031 186.148438 156.527344 185.707031 C 156.597656 185.261719 156.722656 184.84375 156.898438 184.449219 C 157.070312 184.054688 157.285156 183.71875 157.535156 183.4375 C 157.789062 183.15625 158.058594 182.949219 158.347656 182.824219 C 158.636719 182.695312 158.925781 182.652344 159.207031 182.699219 Z M 159.207031 182.699219 " fill-opacity="1" fill-rule="nonzero"/><path fill="#1562e7" d="M 157.996094 190.363281 C 156.265625 190.085938 155.203125 187.960938 155.59375 185.558594 C 155.988281 183.136719 157.648438 181.472656 159.378906 181.75 C 161.113281 182.027344 162.171875 184.152344 161.78125 186.550781 C 161.621094 187.636719 161.15625 188.605469 160.535156 189.324219 C 159.910156 190.015625 159.148438 190.40625 158.363281 190.40625 C 158.25 190.386719 158.109375 190.386719 157.996094 190.363281 Z M 157.511719 185.859375 C 157.28125 187.335938 157.832031 188.375 158.320312 188.445312 C 158.550781 188.492188 158.847656 188.332031 159.101562 188.007812 C 159.472656 187.566406 159.773438 186.921875 159.886719 186.230469 C 160.117188 184.75 159.566406 183.714844 159.082031 183.644531 C 159.058594 183.644531 159.035156 183.644531 159.011719 183.644531 C 158.527344 183.644531 157.71875 184.453125 157.511719 185.859375 Z M 157.511719 185.859375 " fill-opacity="1" fill-rule="nonzero"/><path fill="#000000" d="M 147.84375 182.515625 C 148.070312 182.554688 148.277344 182.65625 148.464844 182.828125 C 148.652344 183 148.804688 183.226562 148.925781 183.503906 C 149.046875 183.785156 149.121094 184.097656 149.15625 184.445312 C 149.1875 184.792969 149.175781 185.144531 149.117188 185.503906 C 149.0625 185.863281 148.960938 186.203125 148.820312 186.519531 C 148.679688 186.839844 148.511719 187.113281 148.308594 187.339844 C 148.109375 187.570312 147.890625 187.734375 147.660156 187.839844 C 147.429688 187.945312 147.199219 187.976562 146.972656 187.941406 C 146.746094 187.90625 146.539062 187.800781 146.351562 187.628906 C 146.164062 187.457031 146.011719 187.234375 145.890625 186.953125 C 145.773438 186.671875 145.695312 186.359375 145.664062 186.011719 C 145.628906 185.667969 145.640625 185.3125 145.699219 184.953125 C 145.757812 184.59375 145.855469 184.257812 145.996094 183.9375 C 146.136719 183.621094 146.308594 183.347656 146.507812 183.117188 C 146.710938 182.886719 146.925781 182.722656 147.15625 182.617188 C 147.390625 182.515625 147.617188 182.480469 147.84375 182.515625 Z M 147.84375 182.515625 " fill-opacity="1" fill-rule="nonzero"/><path fill="#1562e7" d="M 146.84375 188.699219 C 145.460938 188.46875 144.605469 186.785156 144.929688 184.820312 C 145.066406 183.96875 145.414062 183.160156 145.921875 182.605469 C 146.5 181.957031 147.238281 181.636719 147.976562 181.75 C 149.359375 181.980469 150.214844 183.667969 149.890625 185.628906 C 149.59375 187.429688 148.4375 188.722656 147.144531 188.722656 C 147.050781 188.722656 146.960938 188.722656 146.84375 188.699219 Z M 147.074219 183.644531 C 146.773438 183.988281 146.542969 184.519531 146.453125 185.074219 C 146.265625 186.253906 146.707031 187.105469 147.097656 187.152344 C 147.492188 187.222656 148.160156 186.550781 148.367188 185.375 C 148.554688 184.199219 148.113281 183.34375 147.722656 183.296875 C 147.699219 183.296875 147.675781 183.296875 147.675781 183.296875 C 147.492188 183.296875 147.285156 183.414062 147.074219 183.644531 Z M 147.074219 183.644531 " fill-opacity="1" fill-rule="nonzero"/><path fill="#000000" d="M 140.164062 182.222656 C 140.378906 182.253906 140.570312 182.351562 140.746094 182.511719 C 140.921875 182.667969 141.0625 182.878906 141.175781 183.136719 C 141.289062 183.394531 141.359375 183.6875 141.390625 184.007812 C 141.421875 184.324219 141.410156 184.652344 141.359375 184.984375 C 141.304688 185.316406 141.214844 185.628906 141.082031 185.925781 C 140.953125 186.21875 140.792969 186.472656 140.605469 186.683594 C 140.417969 186.894531 140.21875 187.046875 140 187.144531 C 139.785156 187.238281 139.570312 187.269531 139.359375 187.234375 C 139.148438 187.203125 138.957031 187.105469 138.78125 186.945312 C 138.605469 186.789062 138.460938 186.578125 138.351562 186.320312 C 138.238281 186.0625 138.167969 185.769531 138.132812 185.453125 C 138.101562 185.132812 138.113281 184.804688 138.167969 184.472656 C 138.21875 184.140625 138.3125 183.828125 138.441406 183.53125 C 138.574219 183.238281 138.730469 182.984375 138.917969 182.773438 C 139.105469 182.5625 139.308594 182.410156 139.523438 182.3125 C 139.738281 182.21875 139.953125 182.1875 140.164062 182.222656 Z M 140.164062 182.222656 " fill-opacity="1" fill-rule="nonzero"/><path fill="#1562e7" d="M 139.25 187.9375 C 138.578125 187.824219 138.027344 187.335938 137.703125 186.597656 C 137.425781 185.953125 137.332031 185.167969 137.472656 184.359375 C 137.773438 182.558594 138.996094 181.3125 140.289062 181.519531 C 141.582031 181.726562 142.367188 183.296875 142.066406 185.097656 C 141.789062 186.761719 140.726562 187.960938 139.527344 187.960938 C 139.433594 187.960938 139.339844 187.9375 139.25 187.9375 Z M 138.878906 184.589844 C 138.789062 185.121094 138.832031 185.652344 139.019531 186.042969 C 139.132812 186.320312 139.320312 186.507812 139.480469 186.53125 C 139.847656 186.597656 140.472656 185.976562 140.65625 184.890625 C 140.84375 183.804688 140.425781 183.019531 140.058594 182.949219 C 140.035156 182.949219 140.035156 182.949219 140.011719 182.949219 C 139.640625 182.929688 139.042969 183.527344 138.878906 184.589844 Z M 138.878906 184.589844 " fill-opacity="1" fill-rule="nonzero"/><path fill="#ccd6dd" d="M 202.042969 216.078125 C 203.476562 215.734375 204.191406 214.117188 203.476562 212.824219 C 201.351562 208.992188 196.363281 202.203125 187.890625 202.203125 C 176.070312 202.203125 121.726562 204.953125 116.972656 205.507812 C 112.214844 206.058594 101.617188 209.269531 97.671875 216.542969 C 93.816406 223.605469 167.714844 224.4375 202.042969 216.078125 Z M 202.042969 216.078125 " fill-opacity="1" fill-rule="nonzero"/><path fill="#1562e7" d="M 111.269531 222.820312 C 99.957031 221.691406 97.371094 220.074219 96.378906 218.78125 C 95.664062 217.855469 95.570312 216.703125 96.125 215.710938 C 100.511719 207.652344 110.832031 204.097656 116.324219 203.75 C 120.917969 203.476562 176.09375 200.449219 187.890625 200.449219 C 197.21875 200.449219 202.621094 207.675781 205 211.96875 C 205.597656 213.054688 205.667969 214.347656 205.160156 215.503906 C 204.652344 216.65625 203.660156 217.488281 202.4375 217.789062 C 187.660156 221.390625 164.136719 223.652344 139.503906 223.835938 C 138.464844 223.835938 137.449219 223.859375 136.410156 223.859375 C 126.828125 223.835938 117.988281 223.488281 111.269531 222.820312 Z M 116.554688 207.214844 C 111.59375 207.539062 103.144531 210.722656 99.472656 216.863281 C 100.304688 217.347656 103.074219 218.503906 111.824219 219.359375 C 119.164062 220.074219 129.046875 220.417969 139.6875 220.328125 C 158.457031 220.164062 184.589844 218.527344 201.628906 214.371094 C 201.835938 214.324219 201.929688 214.164062 201.972656 214.070312 C 202.019531 213.980469 202.042969 213.816406 201.949219 213.632812 C 199.917969 210.007812 195.417969 203.914062 187.890625 203.914062 C 176.164062 203.9375 121.125 206.9375 116.554688 207.214844 Z M 116.554688 207.214844 " fill-opacity="1" fill-rule="nonzero"/><path fill="#1562e7" d="M 196.339844 225.359375 C 197.3125 225.359375 198.074219 224.574219 198.074219 223.628906 C 198.074219 223.191406 197.910156 222.75 197.585938 222.429688 C 196.917969 221.734375 195.832031 221.691406 195.117188 222.359375 C 194.609375 222.820312 194.449219 223.511719 194.632812 224.136719 C 194.886719 224.828125 195.554688 225.359375 196.339844 225.359375 Z M 196.339844 225.359375 " fill-opacity="1" fill-rule="nonzero"/><path fill="#ccd6dd" d="M 129.484375 180.574219 C 130.867188 179.902344 131.144531 178.035156 130.039062 176.972656 C 127.84375 174.847656 122.605469 171.0625 113.945312 172.402344 C 102.128906 174.226562 95.179688 176.832031 98.480469 180.597656 C 101.226562 183.714844 123.042969 183.757812 129.484375 180.574219 Z M 129.484375 180.574219 " fill-opacity="1" fill-rule="nonzero"/><path fill="#1562e7" d="M 112.609375 184.683594 C 107.804688 184.683594 99.425781 184.289062 97.1875 181.726562 C 95.6875 180.019531 95.800781 178.519531 96.148438 177.550781 C 96.886719 175.496094 99.5625 172.839844 113.691406 170.667969 C 122.972656 169.238281 128.699219 173.230469 131.261719 175.726562 C 132.183594 176.625 132.625 177.917969 132.414062 179.210938 C 132.207031 180.480469 131.398438 181.589844 130.269531 182.144531 C 126.460938 184.011719 118.703125 184.683594 112.675781 184.683594 C 112.652344 184.683594 112.632812 184.683594 112.609375 184.683594 Z M 128.722656 179.027344 C 128.90625 178.933594 128.953125 178.796875 128.976562 178.679688 C 129 178.585938 129 178.402344 128.835938 178.242188 C 126.738281 176.1875 122.027344 172.933594 114.222656 174.132812 C 100.71875 176.210938 99.519531 178.496094 99.425781 178.75 C 99.378906 178.863281 99.542969 179.140625 99.796875 179.441406 C 100.347656 180.019531 104.226562 181.21875 112.675781 181.21875 C 112.675781 181.21875 112.699219 181.21875 112.699219 181.21875 C 119.648438 181.195312 126.066406 180.320312 128.722656 179.027344 Z M 128.722656 179.027344 " fill-opacity="1" fill-rule="nonzero"/></svg>