<svg xmlns="http://www.w3.org/2000/svg" xmlns:xlink="http://www.w3.org/1999/xlink" width="500" zoomAndPan="magnify" viewBox="0 0 375 374.999991" height="500" preserveAspectRatio="xMidYMid meet" version="1.0"><defs><clipPath id="e07cd5f2b9"><path d="M 178 130.980469 L 197 130.980469 L 197 149 L 178 149 Z M 178 130.980469 " clip-rule="nonzero"/></clipPath><clipPath id="814cba6515"><path d="M 130.980469 163 L 244.230469 163 L 244.230469 244.230469 L 130.980469 244.230469 Z M 130.980469 163 " clip-rule="nonzero"/></clipPath><clipPath id="ce79bd4189"><path d="M 242 213 L 244.230469 213 L 244.230469 221 L 242 221 Z M 242 213 " clip-rule="nonzero"/></clipPath></defs><path fill="#ffcd00" d="M 187.605469 131.960938 L 190.078125 137.152344 L 195.769531 137.898438 L 191.609375 141.855469 L 192.652344 147.496094 L 187.605469 144.757812 L 182.5625 147.496094 L 183.601562 141.855469 L 179.441406 137.898438 L 185.132812 137.152344 Z M 187.605469 131.960938 " fill-opacity="1" fill-rule="nonzero"/><path fill="#ffcd00" d="M 163.472656 142.355469 L 165.949219 147.546875 L 171.640625 148.292969 L 167.476562 152.246094 L 168.527344 157.890625 L 163.472656 155.152344 L 158.429688 157.890625 L 159.480469 152.246094 L 155.308594 148.292969 L 161.011719 147.546875 Z M 163.472656 142.355469 " fill-opacity="1" fill-rule="nonzero"/><path fill="#ffcd00" d="M 211.738281 142.355469 L 214.203125 147.546875 L 219.902344 148.292969 L 215.730469 152.246094 L 216.78125 157.890625 L 211.738281 155.152344 L 206.683594 157.890625 L 207.734375 152.246094 L 203.574219 148.292969 L 209.265625 147.546875 Z M 211.738281 142.355469 " fill-opacity="1" fill-rule="nonzero"/><path fill="#ffcd00" d="M 143.089844 159.507812 L 145.5625 164.691406 L 151.257812 165.445312 L 147.085938 169.390625 L 148.136719 175.042969 L 143.089844 172.296875 L 138.046875 175.042969 L 139.085938 169.390625 L 134.925781 165.445312 L 140.617188 164.691406 Z M 143.089844 159.507812 " fill-opacity="1" fill-rule="nonzero"/><path fill="#ffcd00" d="M 232.121094 159.507812 L 234.59375 164.691406 L 240.285156 165.445312 L 236.125 169.390625 L 237.164062 175.042969 L 232.121094 172.296875 L 227.078125 175.042969 L 228.117188 169.390625 L 223.957031 165.445312 L 229.648438 164.691406 Z M 232.121094 159.507812 " fill-opacity="1" fill-rule="nonzero"/><path fill="#80a1e8" d="M 134.90625 193.835938 L 163.070312 193.835938 L 163.070312 243.25 L 131.960938 243.25 L 131.960938 196.78125 C 131.960938 196.390625 132.039062 196.015625 132.1875 195.65625 C 132.335938 195.292969 132.546875 194.976562 132.824219 194.699219 C 133.101562 194.425781 133.417969 194.210938 133.78125 194.0625 C 134.140625 193.914062 134.515625 193.835938 134.90625 193.835938 Z M 134.90625 193.835938 " fill-opacity="1" fill-rule="nonzero"/><path fill="#80a1e8" d="M 212.140625 193.835938 L 240.304688 193.835938 C 240.695312 193.835938 241.070312 193.914062 241.433594 194.0625 C 241.792969 194.210938 242.113281 194.425781 242.386719 194.699219 C 242.664062 194.976562 242.875 195.292969 243.027344 195.65625 C 243.175781 196.015625 243.25 196.390625 243.25 196.78125 L 243.25 243.25 L 212.140625 243.25 Z M 212.140625 193.835938 " fill-opacity="1" fill-rule="nonzero"/><path fill="#96b8ff" d="M 163.070312 171.855469 L 212.140625 171.855469 L 212.140625 243.25 L 163.070312 243.25 Z M 163.070312 171.855469 " fill-opacity="1" fill-rule="nonzero"/><path fill="#b2cbff" d="M 169.824219 164.898438 L 205.398438 164.898438 L 205.398438 171.855469 L 169.824219 171.855469 Z M 169.824219 164.898438 " fill-opacity="1" fill-rule="nonzero"/><path fill="#b2cbff" d="M 178.144531 230.394531 L 197.195312 230.394531 L 197.195312 243.25 L 178.144531 243.25 Z M 178.144531 230.394531 " fill-opacity="1" fill-rule="nonzero"/><path fill="#c4eefe" d="M 174.542969 179.34375 L 184.742188 179.34375 L 184.742188 189.539062 L 174.542969 189.539062 Z M 174.542969 179.34375 " fill-opacity="1" fill-rule="nonzero"/><path fill="#c4eefe" d="M 174.542969 195.988281 L 184.742188 195.988281 L 184.742188 206.183594 L 174.542969 206.183594 Z M 174.542969 195.988281 " fill-opacity="1" fill-rule="nonzero"/><path fill="#c4eefe" d="M 174.542969 212.632812 L 184.742188 212.632812 L 184.742188 222.828125 L 174.542969 222.828125 Z M 174.542969 212.632812 " fill-opacity="1" fill-rule="nonzero"/><path fill="#c4eefe" d="M 190.472656 179.34375 L 200.667969 179.34375 L 200.667969 189.539062 L 190.472656 189.539062 Z M 190.472656 179.34375 " fill-opacity="1" fill-rule="nonzero"/><path fill="#c4eefe" d="M 190.472656 195.988281 L 200.667969 195.988281 L 200.667969 206.183594 L 190.472656 206.183594 Z M 190.472656 195.988281 " fill-opacity="1" fill-rule="nonzero"/><path fill="#c4eefe" d="M 190.472656 212.632812 L 200.667969 212.632812 L 200.667969 222.828125 L 190.472656 222.828125 Z M 190.472656 212.632812 " fill-opacity="1" fill-rule="nonzero"/><path fill="#c4eefe" d="M 137.417969 201.089844 L 145.015625 201.089844 L 145.015625 208.6875 L 137.417969 208.6875 Z M 137.417969 201.089844 " fill-opacity="1" fill-rule="nonzero"/><path fill="#c4eefe" d="M 150.03125 201.089844 L 157.625 201.089844 L 157.625 208.6875 L 150.03125 208.6875 Z M 150.03125 201.089844 " fill-opacity="1" fill-rule="nonzero"/><path fill="#c4eefe" d="M 137.417969 214.742188 L 145.015625 214.742188 L 145.015625 222.335938 L 137.417969 222.335938 Z M 137.417969 214.742188 " fill-opacity="1" fill-rule="nonzero"/><path fill="#c4eefe" d="M 150.03125 214.742188 L 157.625 214.742188 L 157.625 222.335938 L 150.03125 222.335938 Z M 150.03125 214.742188 " fill-opacity="1" fill-rule="nonzero"/><path fill="#c4eefe" d="M 137.417969 228.402344 L 145.015625 228.402344 L 145.015625 235.996094 L 137.417969 235.996094 Z M 137.417969 228.402344 " fill-opacity="1" fill-rule="nonzero"/><path fill="#c4eefe" d="M 150.03125 228.402344 L 157.625 228.402344 L 157.625 235.996094 L 150.03125 235.996094 Z M 150.03125 228.402344 " fill-opacity="1" fill-rule="nonzero"/><path fill="#c4eefe" d="M 217.597656 201.089844 L 225.191406 201.089844 L 225.191406 208.6875 L 217.597656 208.6875 Z M 217.597656 201.089844 " fill-opacity="1" fill-rule="nonzero"/><path fill="#c4eefe" d="M 230.199219 201.089844 L 237.792969 201.089844 L 237.792969 208.6875 L 230.199219 208.6875 Z M 230.199219 201.089844 " fill-opacity="1" fill-rule="nonzero"/><path fill="#c4eefe" d="M 217.597656 214.742188 L 225.191406 214.742188 L 225.191406 222.335938 L 217.597656 222.335938 Z M 217.597656 214.742188 " fill-opacity="1" fill-rule="nonzero"/><path fill="#c4eefe" d="M 230.199219 214.742188 L 237.792969 214.742188 L 237.792969 222.335938 L 230.199219 222.335938 Z M 230.199219 214.742188 " fill-opacity="1" fill-rule="nonzero"/><path fill="#c4eefe" d="M 217.597656 228.402344 L 225.191406 228.402344 L 225.191406 235.996094 L 217.597656 235.996094 Z M 217.597656 228.402344 " fill-opacity="1" fill-rule="nonzero"/><path fill="#c4eefe" d="M 230.199219 228.402344 L 237.792969 228.402344 L 237.792969 235.996094 L 230.199219 235.996094 Z M 230.199219 228.402344 " fill-opacity="1" fill-rule="nonzero"/><g clip-path="url(#e07cd5f2b9)"><path fill="#000000" d="M 182.542969 142.199219 L 181.5625 147.320312 C 181.484375 147.730469 181.613281 148.058594 181.953125 148.300781 C 182.285156 148.542969 182.632812 148.566406 182.992188 148.371094 L 187.605469 145.867188 L 192.1875 148.351562 C 192.550781 148.546875 192.898438 148.523438 193.230469 148.28125 C 193.570312 148.039062 193.699219 147.710938 193.621094 147.300781 L 192.640625 142.179688 L 196.4375 138.605469 C 196.722656 138.332031 196.804688 138.003906 196.695312 137.625 C 196.566406 137.234375 196.296875 137.011719 195.890625 136.957031 L 190.726562 136.28125 L 188.488281 131.539062 C 188.3125 131.171875 188.015625 130.988281 187.605469 130.988281 C 187.195312 130.988281 186.902344 131.171875 186.722656 131.539062 L 184.476562 136.25 L 179.3125 136.929688 C 178.90625 136.980469 178.636719 137.203125 178.507812 137.59375 C 178.398438 137.972656 178.480469 138.300781 178.765625 138.578125 Z M 185.261719 138.125 C 185.613281 138.078125 185.863281 137.894531 186.015625 137.574219 L 187.605469 134.25 L 189.195312 137.554688 C 189.347656 137.875 189.601562 138.058594 189.953125 138.105469 L 193.601562 138.585938 L 190.933594 141.117188 C 190.671875 141.363281 190.574219 141.660156 190.636719 142.011719 L 191.316406 145.632812 L 188.078125 143.875 C 187.75 143.6875 187.421875 143.6875 187.097656 143.875 L 183.855469 145.632812 L 184.535156 142.011719 C 184.597656 141.660156 184.5 141.363281 184.238281 141.117188 L 181.570312 138.585938 Z M 185.261719 138.125 " fill-opacity="1" fill-rule="nonzero"/></g><path fill="#000000" d="M 158.421875 152.589844 L 157.4375 157.714844 C 157.363281 158.121094 157.492188 158.441406 157.828125 158.683594 C 158.160156 158.925781 158.507812 158.949219 158.871094 158.753906 L 163.445312 156.269531 L 168.027344 158.753906 C 168.390625 158.949219 168.738281 158.925781 169.070312 158.683594 C 169.40625 158.441406 169.535156 158.121094 169.460938 157.714844 L 168.480469 152.589844 L 172.257812 149.007812 C 172.542969 148.734375 172.632812 148.40625 172.523438 148.027344 C 172.394531 147.636719 172.125 147.414062 171.71875 147.359375 L 166.546875 146.683594 L 164.308594 141.972656 C 164.132812 141.597656 163.835938 141.410156 163.421875 141.410156 C 163.003906 141.410156 162.707031 141.597656 162.53125 141.972656 L 160.292969 146.683594 L 155.222656 147.371094 C 154.8125 147.421875 154.542969 147.644531 154.417969 148.039062 C 154.304688 148.414062 154.390625 148.742188 154.671875 149.019531 Z M 161.109375 148.519531 C 161.460938 148.472656 161.710938 148.289062 161.863281 147.96875 L 163.445312 144.640625 L 165.035156 147.96875 C 165.1875 148.289062 165.4375 148.472656 165.789062 148.519531 L 169.449219 149 L 166.800781 151.53125 C 166.542969 151.777344 166.449219 152.074219 166.515625 152.425781 L 167.183594 156.046875 L 163.945312 154.289062 C 163.617188 154.101562 163.292969 154.101562 162.964844 154.289062 L 159.726562 156.046875 L 160.394531 152.425781 C 160.460938 152.074219 160.363281 151.777344 160.109375 151.53125 L 157.476562 149 Z M 161.109375 148.519531 " fill-opacity="1" fill-rule="nonzero"/><path fill="#000000" d="M 206.675781 152.589844 L 205.691406 157.714844 C 205.613281 158.125 205.746094 158.453125 206.085938 158.695312 C 206.417969 158.933594 206.765625 158.957031 207.125 158.765625 L 211.707031 156.28125 L 216.28125 158.765625 C 216.644531 158.964844 216.996094 158.941406 217.332031 158.695312 C 217.667969 158.449219 217.796875 158.121094 217.714844 157.714844 L 216.734375 152.589844 L 220.519531 149.007812 C 220.804688 148.734375 220.890625 148.40625 220.777344 148.027344 C 220.648438 147.648438 220.386719 147.429688 219.992188 147.371094 L 214.820312 146.691406 L 212.582031 141.980469 C 212.40625 141.605469 212.109375 141.417969 211.695312 141.417969 C 211.277344 141.417969 210.984375 141.605469 210.804688 141.980469 L 208.566406 146.691406 L 203.4375 147.371094 C 203.027344 147.421875 202.757812 147.644531 202.632812 148.039062 C 202.519531 148.417969 202.609375 148.746094 202.894531 149.019531 Z M 209.390625 148.519531 C 209.742188 148.472656 209.996094 148.289062 210.148438 147.96875 L 211.738281 144.640625 L 213.316406 147.96875 C 213.472656 148.289062 213.722656 148.472656 214.074219 148.519531 L 217.734375 149 L 215.085938 151.53125 C 214.828125 151.777344 214.734375 152.074219 214.800781 152.425781 L 215.46875 156.046875 L 212.230469 154.289062 C 211.902344 154.101562 211.574219 154.101562 211.246094 154.289062 L 208.007812 156.046875 L 208.675781 152.425781 C 208.742188 152.074219 208.648438 151.777344 208.390625 151.53125 L 205.710938 149 Z M 209.390625 148.519531 " fill-opacity="1" fill-rule="nonzero"/><path fill="#000000" d="M 138.027344 169.734375 L 137.046875 174.859375 C 136.96875 175.269531 137.097656 175.597656 137.4375 175.839844 C 137.769531 176.078125 138.117188 176.101562 138.480469 175.910156 L 143.0625 173.414062 L 147.636719 175.910156 C 147.804688 176.011719 147.988281 176.0625 148.1875 176.054688 C 148.382812 176.046875 148.5625 175.988281 148.726562 175.871094 C 148.886719 175.753906 149 175.601562 149.070312 175.417969 C 149.140625 175.230469 149.152344 175.042969 149.105469 174.847656 L 148.125 169.726562 L 151.902344 166.144531 C 152.1875 165.867188 152.269531 165.539062 152.160156 165.164062 C 152.035156 164.765625 151.765625 164.539062 151.355469 164.484375 L 146.191406 163.808594 L 143.945312 159.105469 C 143.765625 158.738281 143.472656 158.554688 143.0625 158.554688 C 142.652344 158.554688 142.355469 158.738281 142.179688 159.105469 L 139.929688 163.808594 L 134.769531 164.484375 C 134.359375 164.539062 134.089844 164.765625 133.964844 165.164062 C 133.851562 165.539062 133.9375 165.867188 134.21875 166.144531 Z M 140.746094 165.664062 C 141.097656 165.617188 141.347656 165.433594 141.5 165.113281 L 143.089844 161.785156 L 144.679688 165.113281 C 144.832031 165.433594 145.085938 165.617188 145.4375 165.664062 L 149.085938 166.144531 L 146.386719 168.683594 C 146.128906 168.929688 146.03125 169.226562 146.09375 169.578125 L 146.769531 173.199219 L 143.53125 171.441406 C 143.207031 171.253906 142.878906 171.253906 142.550781 171.441406 L 139.3125 173.199219 L 139.988281 169.578125 C 140.054688 169.226562 139.957031 168.929688 139.695312 168.683594 L 137.027344 166.144531 Z M 140.746094 165.664062 " fill-opacity="1" fill-rule="nonzero"/><path fill="#000000" d="M 227.058594 169.734375 L 226.074219 174.859375 C 225.992188 175.269531 226.121094 175.597656 226.460938 175.847656 C 226.800781 176.09375 227.152344 176.113281 227.519531 175.910156 L 232.089844 173.414062 L 236.675781 175.910156 C 237.035156 176.101562 237.382812 176.078125 237.714844 175.839844 C 238.054688 175.597656 238.1875 175.269531 238.105469 174.859375 L 237.125 169.734375 L 240.90625 166.152344 C 241.1875 165.878906 241.273438 165.550781 241.160156 165.171875 C 241.035156 164.777344 240.765625 164.550781 240.355469 164.496094 L 235.191406 163.816406 L 232.945312 159.117188 C 232.765625 158.746094 232.472656 158.5625 232.0625 158.5625 C 231.652344 158.5625 231.359375 158.746094 231.179688 159.117188 L 228.929688 163.816406 L 223.769531 164.496094 C 223.359375 164.550781 223.089844 164.777344 222.964844 165.171875 C 222.851562 165.550781 222.9375 165.878906 223.21875 166.152344 Z M 229.804688 165.664062 C 230.15625 165.617188 230.40625 165.433594 230.5625 165.113281 L 232.152344 161.785156 L 233.730469 165.113281 C 233.882812 165.433594 234.136719 165.617188 234.484375 165.664062 L 238.136719 166.144531 L 235.46875 168.683594 C 235.207031 168.929688 235.109375 169.226562 235.171875 169.578125 L 235.851562 173.199219 L 232.613281 171.441406 C 232.285156 171.253906 231.957031 171.253906 231.628906 171.441406 L 228.390625 173.199219 L 229.070312 169.578125 C 229.132812 169.226562 229.035156 168.929688 228.773438 168.683594 L 226.105469 166.144531 Z M 229.804688 165.664062 " fill-opacity="1" fill-rule="nonzero"/><g clip-path="url(#814cba6515)"><path fill="#000000" d="M 240.304688 192.855469 L 213.121094 192.855469 L 213.121094 171.902344 C 213.121094 171.632812 213.027344 171.402344 212.835938 171.210938 C 212.644531 171.019531 212.410156 170.921875 212.140625 170.921875 L 206.371094 170.921875 L 206.371094 164.898438 C 206.371094 164.625 206.273438 164.394531 206.082031 164.203125 C 205.890625 164.011719 205.660156 163.914062 205.386719 163.914062 L 169.824219 163.914062 C 169.554688 163.914062 169.320312 164.011719 169.128906 164.203125 C 168.9375 164.394531 168.84375 164.625 168.84375 164.898438 L 168.84375 170.921875 L 163.070312 170.921875 C 162.800781 170.921875 162.570312 171.019531 162.378906 171.210938 C 162.1875 171.402344 162.089844 171.632812 162.089844 171.902344 L 162.089844 192.90625 L 134.90625 192.90625 C 134.386719 192.90625 133.886719 193.003906 133.40625 193.203125 C 132.921875 193.402344 132.5 193.6875 132.132812 194.054688 C 131.761719 194.421875 131.480469 194.847656 131.28125 195.328125 C 131.082031 195.808594 130.980469 196.308594 130.980469 196.832031 L 130.980469 222.347656 C 130.980469 222.617188 131.078125 222.847656 131.269531 223.039062 C 131.460938 223.230469 131.691406 223.328125 131.960938 223.328125 C 132.234375 223.328125 132.464844 223.230469 132.65625 223.039062 C 132.847656 222.847656 132.945312 222.617188 132.945312 222.347656 L 132.945312 196.832031 C 132.945312 196.570312 132.992188 196.320312 133.09375 196.078125 C 133.191406 195.839844 133.335938 195.628906 133.519531 195.441406 C 133.703125 195.257812 133.914062 195.117188 134.15625 195.019531 C 134.394531 194.917969 134.644531 194.867188 134.90625 194.867188 L 162.089844 194.867188 L 162.089844 242.269531 L 132.945312 242.269531 L 132.945312 231.285156 C 132.945312 231.015625 132.847656 230.785156 132.65625 230.59375 C 132.464844 230.402344 132.234375 230.304688 131.960938 230.304688 C 131.691406 230.304688 131.460938 230.402344 131.269531 230.59375 C 131.078125 230.785156 130.980469 231.015625 130.980469 231.285156 L 130.980469 243.25 C 130.980469 243.519531 131.078125 243.753906 131.269531 243.945312 C 131.460938 244.136719 131.691406 244.230469 131.960938 244.230469 L 243.25 244.230469 C 243.519531 244.230469 243.753906 244.136719 243.945312 243.945312 C 244.136719 243.753906 244.230469 243.519531 244.230469 243.25 L 244.230469 228.207031 C 244.230469 227.933594 244.136719 227.703125 243.945312 227.511719 C 243.753906 227.320312 243.519531 227.222656 243.25 227.222656 C 242.980469 227.222656 242.746094 227.320312 242.554688 227.511719 C 242.363281 227.703125 242.269531 227.933594 242.269531 228.207031 L 242.269531 242.269531 L 213.121094 242.269531 L 213.121094 194.820312 L 240.304688 194.820312 C 240.566406 194.820312 240.816406 194.867188 241.058594 194.96875 C 241.296875 195.066406 241.507812 195.210938 241.695312 195.394531 C 241.878906 195.578125 242.019531 195.789062 242.117188 196.03125 C 242.21875 196.269531 242.269531 196.523438 242.269531 196.78125 L 242.269531 205.4375 C 242.269531 205.707031 242.363281 205.941406 242.554688 206.132812 C 242.746094 206.324219 242.980469 206.417969 243.25 206.417969 C 243.519531 206.417969 243.753906 206.324219 243.945312 206.132812 C 244.136719 205.941406 244.230469 205.707031 244.230469 205.4375 L 244.230469 196.78125 C 244.230469 196.261719 244.132812 195.761719 243.933594 195.28125 C 243.734375 194.796875 243.449219 194.375 243.082031 194.007812 C 242.714844 193.636719 242.289062 193.355469 241.808594 193.15625 C 241.328125 192.957031 240.828125 192.855469 240.304688 192.855469 Z M 170.804688 165.878906 L 204.40625 165.878906 L 204.40625 170.921875 L 170.804688 170.921875 Z M 164.054688 172.886719 L 211.160156 172.886719 L 211.160156 242.269531 L 198.175781 242.269531 L 198.175781 231.375 L 203.957031 231.375 C 204.226562 231.375 204.457031 231.28125 204.648438 231.085938 C 204.839844 230.894531 204.9375 230.664062 204.9375 230.394531 C 204.9375 230.121094 204.839844 229.890625 204.648438 229.699219 C 204.457031 229.507812 204.226562 229.414062 203.957031 229.414062 L 171.257812 229.414062 C 170.984375 229.414062 170.753906 229.507812 170.5625 229.699219 C 170.371094 229.890625 170.273438 230.121094 170.273438 230.394531 C 170.273438 230.664062 170.371094 230.894531 170.5625 231.085938 C 170.753906 231.28125 170.984375 231.375 171.257812 231.375 L 177.144531 231.375 L 177.144531 242.269531 L 164.054688 242.269531 Z M 179.128906 231.375 L 186.625 231.375 L 186.625 242.269531 L 179.128906 242.269531 Z M 188.585938 242.269531 L 188.585938 231.375 L 196.210938 231.375 L 196.210938 242.269531 Z M 188.585938 242.269531 " fill-opacity="1" fill-rule="nonzero"/></g><g clip-path="url(#ce79bd4189)"><path fill="#000000" d="M 243.25 213.40625 C 242.980469 213.40625 242.746094 213.503906 242.554688 213.695312 C 242.363281 213.886719 242.269531 214.117188 242.269531 214.386719 L 242.269531 219.292969 C 242.269531 219.566406 242.363281 219.796875 242.554688 219.988281 C 242.746094 220.179688 242.980469 220.277344 243.25 220.277344 C 243.519531 220.277344 243.753906 220.179688 243.945312 219.988281 C 244.136719 219.796875 244.230469 219.566406 244.230469 219.292969 L 244.230469 214.386719 C 244.230469 214.117188 244.136719 213.886719 243.945312 213.695312 C 243.753906 213.503906 243.519531 213.40625 243.25 213.40625 Z M 243.25 213.40625 " fill-opacity="1" fill-rule="nonzero"/></g><path fill="#000000" d="M 174.542969 190.550781 L 184.742188 190.550781 C 185.011719 190.550781 185.242188 190.453125 185.433594 190.261719 C 185.625 190.070312 185.722656 189.839844 185.722656 189.570312 L 185.722656 179.34375 C 185.722656 179.070312 185.625 178.839844 185.433594 178.648438 C 185.242188 178.457031 185.011719 178.363281 184.742188 178.363281 L 174.542969 178.363281 C 174.273438 178.363281 174.042969 178.457031 173.851562 178.648438 C 173.660156 178.839844 173.5625 179.070312 173.5625 179.34375 L 173.5625 189.570312 C 173.5625 189.839844 173.660156 190.070312 173.851562 190.261719 C 174.042969 190.453125 174.273438 190.550781 174.542969 190.550781 Z M 175.527344 180.355469 L 183.757812 180.355469 L 183.757812 188.585938 L 175.527344 188.585938 Z M 175.527344 180.355469 " fill-opacity="1" fill-rule="nonzero"/><path fill="#000000" d="M 174.542969 207.164062 L 184.742188 207.164062 C 185.011719 207.164062 185.242188 207.070312 185.433594 206.878906 C 185.625 206.6875 185.722656 206.453125 185.722656 206.183594 L 185.722656 195.988281 C 185.722656 195.714844 185.625 195.484375 185.433594 195.292969 C 185.242188 195.101562 185.011719 195.003906 184.742188 195.003906 L 174.542969 195.003906 C 174.273438 195.003906 174.042969 195.101562 173.851562 195.292969 C 173.660156 195.484375 173.5625 195.714844 173.5625 195.988281 L 173.5625 206.183594 C 173.5625 206.453125 173.660156 206.6875 173.851562 206.878906 C 174.042969 207.070312 174.273438 207.164062 174.542969 207.164062 Z M 175.527344 196.96875 L 183.757812 196.96875 L 183.757812 205.203125 L 175.527344 205.203125 Z M 175.527344 196.96875 " fill-opacity="1" fill-rule="nonzero"/><path fill="#000000" d="M 174.542969 223.808594 L 184.742188 223.808594 C 185.011719 223.808594 185.242188 223.714844 185.433594 223.519531 C 185.625 223.328125 185.722656 223.097656 185.722656 222.828125 L 185.722656 212.632812 C 185.722656 212.359375 185.625 212.128906 185.433594 211.9375 C 185.242188 211.746094 185.011719 211.648438 184.742188 211.648438 L 174.542969 211.648438 C 174.273438 211.648438 174.042969 211.746094 173.851562 211.9375 C 173.660156 212.128906 173.5625 212.359375 173.5625 212.632812 L 173.5625 222.828125 C 173.5625 223.097656 173.660156 223.328125 173.851562 223.519531 C 174.042969 223.714844 174.273438 223.808594 174.542969 223.808594 Z M 175.527344 213.613281 L 183.757812 213.613281 L 183.757812 221.847656 L 175.527344 221.847656 Z M 175.527344 213.613281 " fill-opacity="1" fill-rule="nonzero"/><path fill="#000000" d="M 190.472656 190.550781 L 200.667969 190.550781 C 200.9375 190.550781 201.171875 190.453125 201.363281 190.261719 C 201.554688 190.070312 201.648438 189.839844 201.648438 189.570312 L 201.648438 179.34375 C 201.648438 179.070312 201.554688 178.839844 201.363281 178.648438 C 201.171875 178.457031 200.9375 178.363281 200.667969 178.363281 L 190.472656 178.363281 C 190.199219 178.363281 189.96875 178.457031 189.777344 178.648438 C 189.585938 178.839844 189.492188 179.070312 189.492188 179.34375 L 189.492188 189.570312 C 189.492188 189.839844 189.585938 190.070312 189.777344 190.261719 C 189.96875 190.453125 190.199219 190.550781 190.472656 190.550781 Z M 191.453125 180.355469 L 199.6875 180.355469 L 199.6875 188.585938 L 191.453125 188.585938 Z M 191.453125 180.355469 " fill-opacity="1" fill-rule="nonzero"/><path fill="#000000" d="M 190.472656 207.164062 L 200.667969 207.164062 C 200.9375 207.164062 201.171875 207.070312 201.363281 206.878906 C 201.554688 206.6875 201.648438 206.453125 201.648438 206.183594 L 201.648438 195.988281 C 201.648438 195.714844 201.554688 195.484375 201.363281 195.292969 C 201.171875 195.101562 200.9375 195.003906 200.667969 195.003906 L 190.472656 195.003906 C 190.199219 195.003906 189.96875 195.101562 189.777344 195.292969 C 189.585938 195.484375 189.492188 195.714844 189.492188 195.988281 L 189.492188 206.183594 C 189.492188 206.453125 189.585938 206.6875 189.777344 206.878906 C 189.96875 207.070312 190.199219 207.164062 190.472656 207.164062 Z M 191.453125 196.96875 L 199.6875 196.96875 L 199.6875 205.203125 L 191.453125 205.203125 Z M 191.453125 196.96875 " fill-opacity="1" fill-rule="nonzero"/><path fill="#000000" d="M 190.472656 223.808594 L 200.667969 223.808594 C 200.9375 223.808594 201.171875 223.714844 201.363281 223.519531 C 201.554688 223.328125 201.648438 223.097656 201.648438 222.828125 L 201.648438 212.632812 C 201.648438 212.359375 201.554688 212.128906 201.363281 211.9375 C 201.171875 211.746094 200.9375 211.648438 200.667969 211.648438 L 190.472656 211.648438 C 190.199219 211.648438 189.96875 211.746094 189.777344 211.9375 C 189.585938 212.128906 189.492188 212.359375 189.492188 212.632812 L 189.492188 222.828125 C 189.492188 223.097656 189.585938 223.328125 189.777344 223.519531 C 189.96875 223.714844 190.199219 223.808594 190.472656 223.808594 Z M 191.453125 213.613281 L 199.6875 213.613281 L 199.6875 221.847656 L 191.453125 221.847656 Z M 191.453125 213.613281 " fill-opacity="1" fill-rule="nonzero"/><path fill="#000000" d="M 137.417969 209.65625 L 145.015625 209.65625 C 145.285156 209.65625 145.515625 209.5625 145.707031 209.371094 C 145.898438 209.179688 145.996094 208.945312 145.996094 208.675781 L 145.996094 201.089844 C 145.996094 200.820312 145.898438 200.585938 145.707031 200.394531 C 145.515625 200.203125 145.285156 200.109375 145.015625 200.109375 L 137.417969 200.109375 C 137.148438 200.109375 136.917969 200.203125 136.726562 200.394531 C 136.535156 200.585938 136.4375 200.820312 136.4375 201.089844 L 136.4375 208.675781 C 136.4375 208.945312 136.535156 209.179688 136.726562 209.371094 C 136.917969 209.5625 137.148438 209.65625 137.417969 209.65625 Z M 138.398438 202.070312 L 144.035156 202.070312 L 144.035156 207.695312 L 138.398438 207.695312 Z M 138.398438 202.070312 " fill-opacity="1" fill-rule="nonzero"/><path fill="#000000" d="M 150.03125 209.65625 L 157.617188 209.65625 C 157.886719 209.65625 158.117188 209.5625 158.308594 209.371094 C 158.5 209.179688 158.597656 208.945312 158.597656 208.675781 L 158.597656 201.089844 C 158.597656 200.820312 158.5 200.585938 158.308594 200.394531 C 158.117188 200.203125 157.886719 200.109375 157.617188 200.109375 L 150.03125 200.109375 C 149.757812 200.109375 149.527344 200.203125 149.335938 200.394531 C 149.144531 200.585938 149.046875 200.820312 149.046875 201.089844 L 149.046875 208.675781 C 149.046875 208.945312 149.144531 209.179688 149.335938 209.371094 C 149.527344 209.5625 149.757812 209.65625 150.03125 209.65625 Z M 151.011719 202.070312 L 156.632812 202.070312 L 156.632812 207.695312 L 151.011719 207.695312 Z M 151.011719 202.070312 " fill-opacity="1" fill-rule="nonzero"/><path fill="#000000" d="M 136.4375 222.335938 C 136.4375 222.609375 136.535156 222.839844 136.726562 223.03125 C 136.917969 223.222656 137.148438 223.316406 137.417969 223.316406 L 145.015625 223.316406 C 145.285156 223.316406 145.515625 223.222656 145.707031 223.03125 C 145.898438 222.839844 145.996094 222.609375 145.996094 222.335938 L 145.996094 214.75 C 145.996094 214.480469 145.898438 214.25 145.707031 214.058594 C 145.515625 213.867188 145.285156 213.769531 145.015625 213.769531 L 137.417969 213.769531 C 137.148438 213.769531 136.917969 213.867188 136.726562 214.058594 C 136.535156 214.25 136.4375 214.480469 136.4375 214.75 Z M 138.398438 215.730469 L 144.035156 215.730469 L 144.035156 221.355469 L 138.398438 221.355469 Z M 138.398438 215.730469 " fill-opacity="1" fill-rule="nonzero"/><path fill="#000000" d="M 149.046875 222.335938 C 149.046875 222.609375 149.144531 222.839844 149.335938 223.03125 C 149.527344 223.222656 149.757812 223.316406 150.03125 223.316406 L 157.617188 223.316406 C 157.886719 223.316406 158.117188 223.222656 158.308594 223.03125 C 158.5 222.839844 158.597656 222.609375 158.597656 222.335938 L 158.597656 214.75 C 158.597656 214.480469 158.5 214.25 158.308594 214.058594 C 158.117188 213.867188 157.886719 213.769531 157.617188 213.769531 L 150.03125 213.769531 C 149.757812 213.769531 149.527344 213.867188 149.335938 214.058594 C 149.144531 214.25 149.046875 214.480469 149.046875 214.75 Z M 151.011719 215.730469 L 156.632812 215.730469 L 156.632812 221.355469 L 151.011719 221.355469 Z M 151.011719 215.730469 " fill-opacity="1" fill-rule="nonzero"/><path fill="#000000" d="M 136.4375 235.996094 C 136.4375 236.269531 136.535156 236.5 136.726562 236.691406 C 136.917969 236.882812 137.148438 236.980469 137.417969 236.980469 L 145.015625 236.980469 C 145.285156 236.980469 145.515625 236.882812 145.707031 236.691406 C 145.898438 236.5 145.996094 236.269531 145.996094 235.996094 L 145.996094 228.402344 C 145.996094 228.128906 145.898438 227.898438 145.707031 227.707031 C 145.515625 227.515625 145.285156 227.421875 145.015625 227.421875 L 137.417969 227.421875 C 137.148438 227.421875 136.917969 227.515625 136.726562 227.707031 C 136.535156 227.898438 136.4375 228.128906 136.4375 228.402344 Z M 138.398438 229.382812 L 144.035156 229.382812 L 144.035156 235.015625 L 138.398438 235.015625 Z M 138.398438 229.382812 " fill-opacity="1" fill-rule="nonzero"/><path fill="#000000" d="M 149.046875 235.996094 C 149.046875 236.269531 149.144531 236.5 149.335938 236.691406 C 149.527344 236.882812 149.757812 236.980469 150.03125 236.980469 L 157.617188 236.980469 C 157.886719 236.980469 158.117188 236.882812 158.308594 236.691406 C 158.5 236.5 158.597656 236.269531 158.597656 235.996094 L 158.597656 228.402344 C 158.597656 228.128906 158.5 227.898438 158.308594 227.707031 C 158.117188 227.515625 157.886719 227.421875 157.617188 227.421875 L 150.03125 227.421875 C 149.757812 227.421875 149.527344 227.515625 149.335938 227.707031 C 149.144531 227.898438 149.046875 228.128906 149.046875 228.402344 Z M 151.011719 229.382812 L 156.632812 229.382812 L 156.632812 235.015625 L 151.011719 235.015625 Z M 151.011719 229.382812 " fill-opacity="1" fill-rule="nonzero"/><path fill="#000000" d="M 226.164062 201.089844 C 226.164062 200.820312 226.066406 200.585938 225.875 200.394531 C 225.683594 200.203125 225.453125 200.109375 225.183594 200.109375 L 217.597656 200.109375 C 217.324219 200.109375 217.09375 200.203125 216.902344 200.394531 C 216.710938 200.585938 216.617188 200.820312 216.617188 201.089844 L 216.617188 208.675781 C 216.617188 208.945312 216.710938 209.179688 216.902344 209.371094 C 217.09375 209.5625 217.324219 209.65625 217.597656 209.65625 L 225.183594 209.65625 C 225.453125 209.65625 225.683594 209.5625 225.875 209.371094 C 226.066406 209.179688 226.164062 208.945312 226.164062 208.675781 Z M 224.203125 207.695312 L 218.578125 207.695312 L 218.578125 202.070312 L 224.203125 202.070312 Z M 224.203125 207.695312 " fill-opacity="1" fill-rule="nonzero"/><path fill="#000000" d="M 238.773438 201.089844 C 238.773438 200.820312 238.679688 200.585938 238.488281 200.394531 C 238.296875 200.203125 238.0625 200.109375 237.792969 200.109375 L 230.199219 200.109375 C 229.925781 200.109375 229.695312 200.203125 229.503906 200.394531 C 229.3125 200.585938 229.214844 200.820312 229.214844 201.089844 L 229.214844 208.675781 C 229.214844 208.945312 229.3125 209.179688 229.503906 209.371094 C 229.695312 209.5625 229.925781 209.65625 230.199219 209.65625 L 237.792969 209.65625 C 238.0625 209.65625 238.296875 209.5625 238.488281 209.371094 C 238.679688 209.179688 238.773438 208.945312 238.773438 208.675781 Z M 236.8125 207.695312 L 231.179688 207.695312 L 231.179688 202.070312 L 236.8125 202.070312 Z M 236.8125 207.695312 " fill-opacity="1" fill-rule="nonzero"/><path fill="#000000" d="M 226.164062 214.75 C 226.164062 214.480469 226.066406 214.25 225.875 214.058594 C 225.683594 213.867188 225.453125 213.769531 225.183594 213.769531 L 217.597656 213.769531 C 217.324219 213.769531 217.09375 213.867188 216.902344 214.058594 C 216.710938 214.25 216.617188 214.480469 216.617188 214.75 L 216.617188 222.335938 C 216.617188 222.609375 216.710938 222.839844 216.902344 223.03125 C 217.09375 223.222656 217.324219 223.316406 217.597656 223.316406 L 225.183594 223.316406 C 225.453125 223.316406 225.683594 223.222656 225.875 223.03125 C 226.066406 222.839844 226.164062 222.609375 226.164062 222.335938 Z M 224.203125 221.355469 L 218.578125 221.355469 L 218.578125 215.730469 L 224.203125 215.730469 Z M 224.203125 221.355469 " fill-opacity="1" fill-rule="nonzero"/><path fill="#000000" d="M 238.773438 214.75 C 238.773438 214.480469 238.679688 214.25 238.488281 214.058594 C 238.296875 213.867188 238.0625 213.769531 237.792969 213.769531 L 230.199219 213.769531 C 229.925781 213.769531 229.695312 213.867188 229.503906 214.058594 C 229.3125 214.25 229.214844 214.480469 229.214844 214.75 L 229.214844 222.335938 C 229.214844 222.609375 229.3125 222.839844 229.503906 223.03125 C 229.695312 223.222656 229.925781 223.316406 230.199219 223.316406 L 237.792969 223.316406 C 238.0625 223.316406 238.296875 223.222656 238.488281 223.03125 C 238.679688 222.839844 238.773438 222.609375 238.773438 222.335938 Z M 236.8125 221.355469 L 231.179688 221.355469 L 231.179688 215.730469 L 236.8125 215.730469 Z M 236.8125 221.355469 " fill-opacity="1" fill-rule="nonzero"/><path fill="#000000" d="M 225.183594 227.421875 L 217.597656 227.421875 C 217.324219 227.421875 217.09375 227.515625 216.902344 227.707031 C 216.710938 227.898438 216.617188 228.128906 216.617188 228.402344 L 216.617188 235.996094 C 216.617188 236.269531 216.710938 236.5 216.902344 236.691406 C 217.09375 236.882812 217.324219 236.980469 217.597656 236.980469 L 225.183594 236.980469 C 225.453125 236.980469 225.683594 236.882812 225.875 236.691406 C 226.066406 236.5 226.164062 236.269531 226.164062 235.996094 L 226.164062 228.402344 C 226.164062 228.128906 226.066406 227.898438 225.875 227.707031 C 225.683594 227.515625 225.453125 227.421875 225.183594 227.421875 Z M 224.203125 235.015625 L 218.578125 235.015625 L 218.578125 229.382812 L 224.203125 229.382812 Z M 224.203125 235.015625 " fill-opacity="1" fill-rule="nonzero"/><path fill="#000000" d="M 237.792969 227.421875 L 230.199219 227.421875 C 229.925781 227.421875 229.695312 227.515625 229.503906 227.707031 C 229.3125 227.898438 229.214844 228.128906 229.214844 228.402344 L 229.214844 235.996094 C 229.214844 236.269531 229.3125 236.5 229.503906 236.691406 C 229.695312 236.882812 229.925781 236.980469 230.199219 236.980469 L 237.792969 236.980469 C 238.0625 236.980469 238.296875 236.882812 238.488281 236.691406 C 238.679688 236.5 238.773438 236.269531 238.773438 235.996094 L 238.773438 228.402344 C 238.773438 228.128906 238.679688 227.898438 238.488281 227.707031 C 238.296875 227.515625 238.0625 227.421875 237.792969 227.421875 Z M 236.8125 235.015625 L 231.179688 235.015625 L 231.179688 229.382812 L 236.8125 229.382812 Z M 236.8125 235.015625 " fill-opacity="1" fill-rule="nonzero"/></svg>