<?xml version="1.0" encoding="iso-8859-1"?>
<!-- Uploaded to: SVG Repo, www.svgrepo.com, Generator: SVG Repo Mixer Tools -->
<svg fill="currentColor" height="800px" width="800px" version="1.1" id="Capa_1" xmlns="http://www.w3.org/2000/svg" xmlns:xlink="http://www.w3.org/1999/xlink" 
	 viewBox="0 0 298 298" xml:space="preserve">
<g>
	<path d="M272.998,247.232H238V38.67c0-3.912-2.642-7.162-6.352-7.857c0.95-0.73,1.666-2.074,1.666-3.344
		c0-2.207-1.764-4.236-3.952-4.236H221V5.57c0-2.225-1.773-4.035-4.019-4.035c-2.225,0-3.981,1.811-3.981,4.035v21.832
		c0,1.268,0.898,2.83,1.787,2.83h-8.438c0.851,0,1.407-1.793,1.407-2.982c0-2.207-1.848-4.018-4.035-4.018H195v-3h7.315
		c2.225,0,4.035-1.773,4.035-4.02c0-2.188-1.848-3.981-4.035-3.981H195v-3h8.722c2.188,0,4.035-1.811,4.035-4.018
		c0-2.225-1.811-3.982-4.035-3.982h-12.1c-2.263,0-4.622,2.076-4.622,4.338v21.832c0,1.281,1.026,2.83,1.991,2.83h-16.618
		c1.141,0,1.627-1.467,1.627-2.83V9.232h3.748c2.188,0,4.035-1.811,4.035-4.018c0-2.225-1.811-3.982-4.035-3.982h-15.8
		c-2.263,0-4.035,1.719-4.035,3.982c0,2.244,1.811,4.018,4.035,4.018H165v18.17c0,1.346,1.173,2.83,2.324,2.83h-19.208
		c1.065,0,2.06-0.756,2.94-1.402c2.551-1.838,4.014-4.479,4.014-7.316c0-1.483-0.424-2.99-1.189-4.213
		c-0.966-1.555-2.445-2.775-4.541-3.795c-1.509-0.717-3.282-1.246-5.58-1.697l-0.27-0.03c-1.88-0.365-3.336-0.89-3.884-1.271
		c-0.217-0.15-0.605-0.26-0.605-0.32c0-0.01,0-0.02,0-0.029c0-0.129,0.365-0.397,0.806-0.723c0.73-0.543,1.939-0.865,3.057-0.865
		c1.668,0,3.174,0.881,4.901,2.031c0.643,0.43,1.414,0.656,2.182,0.654c1.343,0,2.581-0.678,3.235-1.73
		c0.6-0.861,0.82-1.91,0.608-2.953c-0.204-1.002-0.776-1.875-1.671-2.496l-0.093-0.063c-1.981-1.281-4.974-3.219-9.057-3.219
		c-2.797,0-5.486,0.832-7.59,2.354c-2.396,1.771-3.771,4.326-3.771,7.01c0,1.471,0.4,2.887,1.158,4.098
		c0.95,1.514,2.39,2.736,4.276,3.629c1.435,0.682,3.105,1.189,5.255,1.602l0.262,0.035c1.791,0.35,3.338,0.873,4.148,1.404
		c0.328,0.219,0.446,0.377,0.507,0.476l0.047,0.152c0,0.4-0.421,0.793-0.775,1.053c-0.837,0.613-2.123,0.98-3.534,0.982
		c-1.919,0-4.25-1.205-5.709-2.398c-0.698-0.572-1.582-0.887-2.488-0.887c-1.182,0-2.285,0.521-3.061,1.471
		c-1.297,1.68-1.022,4.051,0.64,5.41c1.401,1.106,3.31,3.047,5.58,3.047h-22.76c2.225,0,4.271-1.857,5.845-3.594
		c2.767-2.9,4.29-6.606,4.29-10.633c0-3.98-1.52-7.736-4.246-10.639c-2.589-2.896-6.452-4.6-10.335-4.6
		c-3.991,0-7.831,1.691-10.523,4.603c-2.712,2.887-4.205,6.706-4.205,10.737c0,4.078,1.497,7.677,4.205,10.517
		c1.655,1.764,3.716,3.607,5.956,3.607H88.666c1.011,0,1.334-1.484,1.334-2.83V5.57c0-2.225-1.773-4.035-4.019-4.035
		C83.719,1.535,82,3.309,82,5.57v6.662h-6V5.57c0-2.225-1.772-4.035-4.019-4.035C69.72,1.535,68,3.309,68,5.57v21.832
		c0,1.363,0.965,2.83,1.956,2.83h-1.623c-4.418,0-8.333,4.019-8.333,8.437v208.563H25.668C11.883,247.232,0,258.885,0,272.67v17
		c0,4.418,4.25,7.563,8.668,7.563H124v-34h49v34h116.998c4.418,0,8.002-3.145,8.002-7.563v-17
		C298,258.885,286.783,247.232,272.998,247.232z M106.172,11.006c1.217-1.303,2.784-1.992,4.532-1.992
		c1.629,0,3.187,0.707,4.384,1.99c1.258,1.35,1.979,3.213,1.979,5.111c0,1.879-0.734,3.77-1.979,5.074
		c-1.221,1.309-2.778,2.029-4.385,2.029c-1.726,0-3.293-0.701-4.563-2.063c-1.237-1.266-1.946-3.104-1.946-5.041
		C104.194,14.186,104.909,12.328,106.172,11.006z M199,143.67c-4.418,0-8-3.582-8-8v-17c0-4.418,3.582-8,8-8s8,3.582,8,8v17
		C207,140.088,203.418,143.67,199,143.67z M207,168.67v17c0,4.418-3.582,8-8,8s-8-3.582-8-8v-17c0-4.418,3.582-8,8-8
		S207,164.252,207,168.67z M199,94.67c-4.418,0-8-3.582-8-8v-17c0-4.418,3.582-8,8-8s8,3.582,8,8v17
		C207,91.088,203.418,94.67,199,94.67z M165,143.67c-4.418,0-8-3.582-8-8v-17c0-4.418,3.582-8,8-8s8,3.582,8,8v17
		C173,140.088,169.418,143.67,165,143.67z M173,168.67v17c0,4.418-3.582,8-8,8s-8-3.582-8-8v-17c0-4.418,3.582-8,8-8
		S173,164.252,173,168.67z M165,94.67c-4.418,0-8-3.582-8-8v-17c0-4.418,3.582-8,8-8s8,3.582,8,8v17
		C173,91.088,169.418,94.67,165,94.67z M132,143.67c-4.418,0-8-3.582-8-8v-17c0-4.418,3.582-8,8-8s8,3.582,8,8v17
		C140,140.088,136.418,143.67,132,143.67z M140,168.67v17c0,4.418-3.582,8-8,8s-8-3.582-8-8v-17c0-4.418,3.582-8,8-8
		S140,164.252,140,168.67z M132,94.67c-4.418,0-8-3.582-8-8v-17c0-4.418,3.582-8,8-8s8,3.582,8,8v17
		C140,91.088,136.418,94.67,132,94.67z M99,143.67c-4.418,0-8-3.582-8-8v-17c0-4.418,3.582-8,8-8s8,3.582,8,8v17
		C107,140.088,103.418,143.67,99,143.67z M107,168.67v17c0,4.418-3.582,8-8,8s-8-3.582-8-8v-17c0-4.418,3.582-8,8-8
		S107,164.252,107,168.67z M99,94.67c-4.418,0-8-3.582-8-8v-17c0-4.418,3.582-8,8-8s8,3.582,8,8v17
		C107,91.088,103.418,94.67,99,94.67z M16,272.67c0-4.963,4.705-9.438,9.668-9.438H60v18H16V272.67z M238,263.232h34.998
		c4.963,0,9.002,4.475,9.002,9.438v8.563h-44V263.232z M76,27.402v-7.17h6v7.17c0,1.363,0.965,2.83,1.956,2.83h-9.29
		C75.677,30.232,76,28.748,76,27.402z M116.067,247.232c-2.945,0-5.652-1.4-7.047-3.994c-1.395-2.596-1.25-5.637,0.375-8.092
		l14.557-22.164c1.481-2.24,3.987-3.75,6.672-3.75h36.95c2.644,0,5.116,1.523,6.607,3.707l15.024,22.109
		c1.673,2.449,1.854,5.459,0.468,8.082c-1.385,2.623-4.107,4.102-7.074,4.102H116.067z"/>
</g>
</svg>