<?xml version="1.0" encoding="utf-8"?>

<!DOCTYPE svg PUBLIC "-//W3C//DTD SVG 1.1//EN" "http://www.w3.org/Graphics/SVG/1.1/DTD/svg11.dtd">
<!-- Uploaded to: SVG Repo, www.svgrepo.com, Generator: SVG Repo Mixer Tools -->
<svg height="800px" width="800px" version="1.1" id="_x32_" xmlns="http://www.w3.org/2000/svg" xmlns:xlink="http://www.w3.org/1999/xlink" 
	 viewBox="0 0 512 512"  xml:space="preserve">
<style type="text/css">
	.st0{fill:currentColor;}
</style>
<g>
	<path class="st0" d="M62.651,312.279h11.681L61.179,209.11c16.136,15.5,46.739,46.965,72.71,85.588l23.267,22.891h37.289
		l4.126-14.864h53.09l6.262,14.864h65.004l4.133-14.864h53.09l6.261,14.864h52.495c9.916-37.515,12.742-91.316,5.666-130.966
		c-43.01-6.364-97.694,30.09-114.679,52.392c-39.65-127.428-155.746-144.42-155.746-144.42v82.386
		c-32.697-15.103-58.4-19.736-58.4-19.736c-4.222,9.848-4.249,34.586-3.791,50.175c-43.584-13.776-62.048-8.759-62.048-8.759
		l4.921,41.011C35.9,229.557,0,230.516,0,230.516S59.468,311.219,62.651,312.279z M185.829,126.457
		c57.34,29.727,100.877,115.74,93.445,151.846c-6.316-12.112-13.188-23.056-20.502-32.951c-8.308-39.622-30.111-60.85-30.111-60.85
		l-11.244,18.34c-10.264-7.931-20.865-14.596-31.588-20.146V126.457z M124.24,177.426c0,0,31.856,6.364,63.711,66.893
		c-4.804-3.791-10.935-7.583-17.484-11.162c-9.094-19.079-20.386-25.998-20.386-25.998l-9.19,11.949
		c-9.663-4.086-16.65-6.645-16.65-6.645V177.426z"/>
	<path class="st0" d="M498.409,398.388v-16.307l-55.252-55.253H146.802l-56.163-55.253c0,0-4.53,40.758-31.698,67.934
		c0,4.53,0,17.21,0,17.21h51.626v12.318h-75.18v18.477h75.18v10.874H12.742v19.018h13.584h472.082H512v-19.018H498.409z"/>
	<polygon class="st0" points="52.03,316.529 20.175,272.992 25.485,316.529 	"/>
</g>
</svg>