<svg xmlns="http://www.w3.org/2000/svg" xmlns:xlink="http://www.w3.org/1999/xlink" width="500" zoomAndPan="magnify" viewBox="0 0 375 374.999991" height="500" preserveAspectRatio="xMidYMid meet" version="1.0"><defs><clipPath id="dad5170ba4"><path d="M 180 131.023438 L 194 131.023438 L 194 144 L 180 144 Z M 180 131.023438 " clip-rule="nonzero"/></clipPath><clipPath id="f474e33eca"><path d="M 139.542969 210 L 235.542969 210 L 235.542969 244 L 139.542969 244 Z M 139.542969 210 " clip-rule="nonzero"/></clipPath></defs><g clip-path="url(#dad5170ba4)"><path fill="#244b93" d="M 193.203125 137.300781 C 193.203125 133.839844 190.398438 131.03125 186.933594 131.03125 C 183.46875 131.03125 180.664062 133.839844 180.664062 137.300781 C 180.664062 140.765625 183.46875 143.574219 186.933594 143.574219 C 190.398438 143.574219 193.203125 140.765625 193.203125 137.300781 " fill-opacity="1" fill-rule="nonzero"/></g><path fill="#244b93" d="M 213.429688 208.566406 L 187.058594 213.480469 L 160.398438 208.566406 L 153.769531 199.160156 L 187.058594 203.863281 L 220.0625 199.160156 L 213.429688 208.566406 " fill-opacity="1" fill-rule="nonzero"/><g clip-path="url(#f474e33eca)"><path fill="#797a7a" d="M 152.300781 231.8125 L 157.667969 224.46875 L 216.503906 224.46875 L 221.871094 231.8125 Z M 213.765625 210.867188 L 207.175781 211.710938 L 212.253906 218.652344 L 161.921875 218.652344 L 166.972656 211.742188 L 160.378906 210.90625 L 139.542969 239.402344 L 144.238281 242.835938 L 148.050781 237.625 L 226.125 237.625 L 230.753906 243.957031 L 235.449219 240.523438 L 213.765625 210.867188 " fill-opacity="1" fill-rule="nonzero"/></g><path fill="#244b93" d="M 217.199219 169.6875 C 217.199219 172.421875 214.960938 174.65625 212.226562 174.65625 L 193.171875 174.65625 C 190.441406 174.65625 188.203125 172.421875 188.203125 169.6875 L 188.203125 158.464844 C 188.203125 155.730469 190.441406 153.492188 193.171875 153.492188 L 212.226562 153.492188 C 214.960938 153.492188 217.199219 155.730469 217.199219 158.464844 Z M 207.402344 193.101562 C 204.808594 193.101562 202.699219 190.996094 202.699219 188.402344 C 202.699219 185.800781 204.808594 183.695312 207.402344 183.695312 C 210.003906 183.695312 212.109375 185.800781 212.109375 188.402344 C 212.109375 190.996094 210.003906 193.101562 207.402344 193.101562 Z M 185.664062 169.6875 C 185.664062 172.421875 183.425781 174.65625 180.695312 174.65625 L 161.640625 174.65625 C 158.90625 174.65625 156.667969 172.421875 156.667969 169.6875 L 156.667969 158.464844 C 156.667969 155.730469 158.90625 153.492188 161.640625 153.492188 L 180.695312 153.492188 C 183.425781 153.492188 185.664062 155.730469 185.664062 158.464844 Z M 166.460938 193.101562 C 163.863281 193.101562 161.757812 190.996094 161.757812 188.402344 C 161.757812 185.800781 163.863281 183.695312 166.460938 183.695312 C 169.058594 183.695312 171.164062 185.800781 171.164062 188.402344 C 171.164062 190.996094 169.058594 193.101562 166.460938 193.101562 Z M 206.144531 135.667969 L 194.808594 135.667969 C 194.914062 136.195312 194.972656 136.742188 194.972656 137.300781 C 194.972656 141.742188 191.375 145.339844 186.933594 145.339844 C 182.492188 145.339844 178.894531 141.742188 178.894531 137.300781 C 178.894531 136.742188 178.953125 136.195312 179.0625 135.667969 L 167.722656 135.667969 C 160.046875 135.667969 153.769531 141.949219 153.769531 149.621094 L 153.769531 196.835938 L 186.933594 201.578125 L 220.097656 196.835938 L 220.097656 149.621094 C 220.097656 141.949219 213.820312 135.667969 206.144531 135.667969 " fill-opacity="1" fill-rule="nonzero"/></svg>