<svg xmlns="http://www.w3.org/2000/svg" xmlns:xlink="http://www.w3.org/1999/xlink" width="500" zoomAndPan="magnify" viewBox="0 0 375 374.999991" height="500" preserveAspectRatio="xMidYMid meet" version="1.0"><defs><clipPath id="aae980abd1"><path d="M 131.097656 131.097656 L 243.597656 131.097656 L 243.597656 243.597656 L 131.097656 243.597656 Z M 131.097656 131.097656 " clip-rule="nonzero"/></clipPath><clipPath id="0231ac58bd"><path d="M 172 134 L 243.597656 134 L 243.597656 202 L 172 202 Z M 172 134 " clip-rule="nonzero"/></clipPath><clipPath id="47f7dd8274"><path d="M 153 131.097656 L 180 131.097656 L 180 149 L 153 149 Z M 153 131.097656 " clip-rule="nonzero"/></clipPath><clipPath id="4e9441dc30"><path d="M 131.097656 150 L 147 150 L 147 184 L 131.097656 184 Z M 131.097656 150 " clip-rule="nonzero"/></clipPath></defs><g clip-path="url(#aae980abd1)"><path fill="#1562e7" d="M 243.898438 187.492188 C 243.898438 187.625 243.898438 187.769531 243.890625 187.90625 C 243.871094 190.683594 243.652344 193.417969 243.238281 196.089844 C 241.273438 208.992188 234.941406 220.445312 225.792969 228.898438 L 225.785156 228.898438 C 215.722656 238.207031 202.265625 243.898438 187.492188 243.898438 C 180.261719 243.898438 173.347656 242.542969 167.003906 240.050781 C 166.21875 239.753906 165.4375 239.429688 164.667969 239.085938 C 153.9375 234.332031 144.980469 226.335938 139.015625 216.328125 C 136.023438 211.296875 133.777344 205.757812 132.457031 199.878906 C 131.5625 195.886719 131.089844 191.742188 131.089844 187.492188 C 131.089844 186 131.144531 184.523438 131.273438 183.066406 C 132.222656 170.695312 137.171875 159.449219 144.828125 150.609375 C 147.777344 147.203125 151.125 144.15625 154.800781 141.542969 L 154.808594 141.53125 C 155.804688 140.828125 156.824219 140.140625 157.875 139.5 C 164.28125 135.535156 171.539062 132.808594 179.308594 131.679688 C 181.980469 131.289062 184.714844 131.089844 187.492188 131.089844 C 194.113281 131.089844 200.484375 132.238281 206.382812 134.339844 C 215.921875 137.722656 224.261719 143.605469 230.652344 151.1875 C 238.925781 160.996094 243.898438 173.664062 243.898438 187.492188 " fill-opacity="1" fill-rule="nonzero"/></g><path fill="#70c573" d="M 195.027344 231.632812 C 195.027344 231.632812 191.957031 227.347656 192.296875 220.003906 C 192.636719 212.660156 191.957031 211.4375 187.179688 209.90625 C 182.40625 208.378906 177.628906 205.621094 176.949219 201.949219 C 176.265625 198.277344 180.359375 189.710938 180.359375 189.710938 C 180.359375 189.710938 185.816406 186.039062 190.589844 186.648438 C 195.367188 187.261719 203.554688 187.261719 207.304688 190.628906 C 211.058594 193.992188 213.441406 201.644531 215.148438 201.949219 C 216.855469 202.257812 212.761719 215.414062 212.078125 217.558594 C 211.398438 219.699219 209.351562 228.269531 207.648438 231.632812 C 205.941406 235 204.234375 238.058594 202.871094 238.058594 C 201.507812 238.058594 195.367188 238.671875 195.027344 231.632812 " fill-opacity="1" fill-rule="nonzero"/><path fill="#70c573" d="M 168.523438 230.933594 C 168.226562 232.378906 167.695312 236.226562 167.003906 240.050781 C 166.21875 239.753906 165.4375 239.429688 164.667969 239.085938 C 153.9375 234.332031 144.980469 226.335938 139.015625 216.328125 C 136.023438 211.296875 133.777344 205.757812 132.457031 199.878906 C 134.539062 198.773438 137.144531 197.777344 139.707031 197.824219 C 145.316406 197.933594 146.019531 199.3125 150.796875 202.738281 C 155.566406 206.171875 159.304688 214.730469 161.320312 214.875 C 163.339844 215.011719 169.042969 228.363281 168.523438 230.933594 " fill-opacity="1" fill-rule="nonzero"/><g clip-path="url(#0231ac58bd)"><path fill="#70c573" d="M 243.898438 187.492188 C 243.898438 187.625 243.898438 187.769531 243.890625 187.90625 C 243.871094 190.683594 243.652344 193.417969 243.238281 196.089844 C 240.707031 192.367188 237.972656 186.785156 236.578125 185.808594 C 234.433594 184.296875 226.570312 183.390625 229.429688 187.316406 C 232.289062 191.253906 233.5 191.253906 233.5 191.253906 C 233.5 191.253906 228 202.332031 224.074219 201.253906 C 220.140625 200.1875 212.273438 185.808594 212.273438 185.808594 C 207.632812 182.152344 216.5625 179.457031 216.5625 179.457031 C 216.5625 179.457031 219.421875 176.957031 215.132812 174.097656 C 210.84375 171.238281 207.632812 177.3125 204.773438 176.597656 C 201.914062 175.882812 201.199219 178.738281 200.304688 181.601562 C 199.40625 184.457031 196.800781 186.171875 196.195312 181.601562 C 195.578125 177.03125 189.046875 179.820312 186.902344 179.820312 C 184.757812 179.820312 180.46875 187.316406 176.53125 187.316406 C 172.605469 187.316406 172.605469 181.960938 173.320312 179.457031 C 174.035156 176.957031 180.105469 174.449219 185.824219 174.097656 C 191.542969 173.738281 186.1875 168.734375 187.972656 167.765625 C 189.761719 166.789062 195.121094 168.378906 200.304688 170.523438 C 205.480469 172.671875 210.84375 167.664062 215.496094 167.765625 C 220.140625 167.863281 205.488281 164.089844 210.128906 160.515625 C 214.78125 156.941406 204.773438 153.722656 205.125 149.792969 C 205.488281 145.859375 202.265625 141.214844 202.265625 136.925781 C 202.265625 135.5625 203.789062 134.671875 206.382812 134.339844 C 215.921875 137.722656 224.261719 143.605469 230.652344 151.1875 C 238.925781 160.996094 243.898438 173.664062 243.898438 187.492188 " fill-opacity="1" fill-rule="nonzero"/></g><path fill="#70c573" d="M 164.050781 168.425781 C 164.050781 168.425781 166.125 170.871094 167.71875 168.425781 C 169.320312 165.972656 169.546875 164.023438 168.546875 163.847656 C 167.542969 163.667969 161.59375 167.40625 164.050781 168.425781 " fill-opacity="1" fill-rule="nonzero"/><path fill="#70c573" d="M 151.980469 168.425781 C 151.980469 168.425781 156.242188 167.335938 157.1875 165.207031 C 158.136719 163.074219 163.578125 164.023438 164.996094 161.890625 C 166.417969 159.761719 170.09375 159 170.980469 157.015625 C 171.863281 155.027344 172.824219 151.953125 169.148438 151.710938 C 165.472656 151.476562 161.847656 149.824219 161.886719 151.710938 C 161.921875 153.609375 160.976562 153.132812 157.664062 154.316406 C 154.347656 155.5 150.796875 153.792969 150.796875 157.015625 C 150.796875 160.234375 151.746094 163.839844 151.746094 163.839844 C 151.746094 163.839844 149.851562 166.4375 151.980469 168.425781 " fill-opacity="1" fill-rule="nonzero"/><g clip-path="url(#47f7dd8274)"><path fill="#70c573" d="M 179.308594 131.679688 C 179.308594 131.679688 172.96875 140.148438 171.789062 140.375 C 170.605469 140.601562 166.976562 143.085938 166.308594 145.578125 C 165.628906 148.070312 160.878906 149.648438 157.261719 148.070312 C 153.640625 146.484375 152.808594 144.738281 154.800781 141.542969 L 154.808594 141.53125 C 155.804688 140.828125 156.824219 140.140625 157.875 139.5 C 164.28125 135.535156 171.539062 132.808594 179.308594 131.679688 " fill-opacity="1" fill-rule="nonzero"/></g><g clip-path="url(#4e9441dc30)"><path fill="#70c573" d="M 143.761719 164.960938 C 143.160156 166.769531 143.308594 168.878906 141.351562 169.511719 C 139.386719 170.144531 140.140625 172.496094 138.785156 175.511719 C 137.5625 178.226562 132.324219 182.277344 131.273438 183.066406 C 132.222656 170.695312 137.171875 159.449219 144.828125 150.609375 C 145.625 153.023438 145.316406 157.015625 146.019531 158.316406 C 147.082031 160.28125 144.363281 163.148438 143.761719 164.960938 " fill-opacity="1" fill-rule="nonzero"/></g></svg>