<svg xmlns="http://www.w3.org/2000/svg" xmlns:xlink="http://www.w3.org/1999/xlink" width="500" zoomAndPan="magnify" viewBox="0 0 375 374.999991" height="500" preserveAspectRatio="xMidYMid meet" version="1.0"><defs><clipPath id="4989d2f6f7"><path d="M 249 194 L 256.539062 194 L 256.539062 218 L 249 218 Z M 249 194 " clip-rule="nonzero"/></clipPath></defs><path fill="#a4e5ee" d="M 129.847656 158.167969 L 166.9375 149.511719 C 173.128906 152.636719 177.4375 156.308594 182.269531 160.015625 C 186.75 166.96875 188.164062 174.125 189.464844 181.078125 C 194.902344 192.503906 205.953125 218.308594 239.886719 217.347656 L 248.753906 217.183594 C 256.425781 217.359375 256.132812 228.390625 249.230469 229.078125 L 210.527344 230.25 L 202.933594 224.71875 C 187.59375 225.867188 176.183594 225.964844 165.773438 221.648438 C 143.65625 215.640625 122.597656 179.328125 129.847656 158.167969 Z M 129.847656 158.167969 " fill-opacity="1" fill-rule="evenodd"/><path fill="#010101" d="M 126.316406 157.757812 L 129.601562 158.25 C 127.875 166.121094 129.363281 172.9375 131.40625 179.542969 C 135.515625 192.828125 142.359375 202.582031 150.132812 210.179688 C 159.175781 219.019531 171.089844 223.789062 186.363281 223.339844 L 202.304688 223.40625 C 205.066406 223.253906 208.761719 225.089844 209.9375 227.546875 C 210.707031 229.15625 212.574219 228.839844 214.113281 228.914062 L 250.34375 228.746094 L 253.6875 239.539062 C 254.820312 243.121094 251.113281 243.632812 250.25 240.6875 L 247.800781 232.578125 L 216.183594 232.664062 L 217.148438 240.164062 C 217.578125 243.066406 213.8125 243.339844 213.496094 240.503906 L 212.476562 232.40625 C 210.273438 232.457031 207.917969 231.886719 206.78125 229.167969 C 206.089844 227.519531 203.914062 227 200.207031 227.042969 L 186.058594 226.902344 L 186.03125 236.519531 C 186.046875 239.292969 182.617188 238.972656 182.589844 236.519531 L 182.507812 227.015625 C 171.78125 226.859375 162.289062 223.636719 153.960938 217.914062 L 147.945312 236.964844 C 147.125 239.460938 143.054688 238.464844 143.957031 235.609375 L 150.761719 215.636719 C 134.496094 203.070312 122.164062 176.324219 126.316406 157.757812 Z M 126.316406 157.757812 " fill-opacity="1" fill-rule="evenodd"/><path fill="#f1a48a" d="M 141.078125 150.535156 C 136.667969 150.644531 132.234375 150.789062 127.65625 151.066406 C 121.589844 151.441406 118.566406 154.183594 121.902344 159.089844 C 125.433594 164.285156 129.867188 167.601562 133.726562 171.125 L 141.289062 162.410156 L 137.785156 159.703125 L 145.050781 158.066406 Z M 141.078125 150.535156 " fill-opacity="1" fill-rule="evenodd"/><path stroke-linecap="round" transform="matrix(0.0673613, 0, 0, 0.0671882, 120.521869, 132.207985)" fill="none" stroke-linejoin="round" d="M 187.909452 358.06323 L 284.056141 431.841481 " stroke="#010101" stroke-width="2.74" stroke-opacity="1" stroke-miterlimit="1.5"/><path fill="#f1a48a" d="M 162.105469 145.085938 C 166.234375 142.734375 170.382812 140.386719 174.617188 138.039062 C 179.238281 135.476562 183.972656 137.417969 183.664062 143.152344 C 183.355469 148.855469 181.855469 154.304688 180.269531 159.21875 L 169.894531 152.332031 L 171.792969 148.589844 L 164.242188 152.855469 Z M 162.105469 145.085938 " fill-opacity="1" fill-rule="evenodd"/><path stroke-linecap="round" transform="matrix(0.0673613, 0, 0, 0.0671882, 120.521869, 132.207985)" fill="none" stroke-linejoin="round" d="M 795.00215 185.565143 L 733.939144 294.982534 " stroke="#010101" stroke-width="2.74" stroke-opacity="1" stroke-miterlimit="1.5"/><path fill="#f1a48a" d="M 150.816406 162.824219 C 153.316406 167.71875 157.203125 172.347656 161.113281 176.957031 C 164.082031 177.511719 166.5 177.386719 168.175781 174.820312 L 160.507812 161.492188 Z M 150.816406 162.824219 " fill-opacity="1" fill-rule="evenodd"/><path fill="#010101" d="M 161.023438 162.382812 L 162.589844 165.070312 C 159.679688 165.246094 156.863281 164.785156 155.332031 162.980469 Z M 161.023438 162.382812 " fill-opacity="1" fill-rule="evenodd"/><path stroke-linecap="round" transform="matrix(0.0673613, 0, 0, 0.0671882, 120.521869, 132.207985)" fill-opacity="1" fill="#fa6250" fill-rule="evenodd" stroke-linejoin="round" d="M 157.059006 602.65354 L 285.157943 429.28337 C 352.831759 486.840871 406.64607 525.445094 485.801819 510.677816 C 544.777201 567.421373 607.753862 624.920735 670.672534 659.629653 L 614.074724 469.980593 L 733.12729 294.69184 L 916.606256 408.004536 L 835.8268 573.060845 L 983.29425 830.557989 L 654.377468 1124.39194 L 316.066378 711.198848 Z M 157.059006 602.65354 " stroke="#010101" stroke-width="2.74" stroke-opacity="1" stroke-miterlimit="1.5"/><path stroke-linecap="round" transform="matrix(0.0673613, 0, 0, 0.0671882, 120.521869, 132.207985)" fill="none" stroke-linejoin="round" d="M 417.432128 510.387122 L 485.917798 545.386734 L 476.813437 603.932596 L 670.034649 658.583153 " stroke="#010101" stroke-width="2.74" stroke-opacity="1" stroke-miterlimit="1.5"/><path stroke-linecap="round" transform="matrix(0.0673613, 0, 0, 0.0671882, 120.521869, 132.207985)" fill="none" stroke-linejoin="round" d="M 628.514125 449.166871 L 691.606765 484.050205 L 666.671255 509.922011 L 666.961203 641.315902 " stroke="#010101" stroke-width="2.74" stroke-opacity="1" stroke-miterlimit="1.5"/><path stroke-linecap="round" transform="matrix(0.0673613, 0, 0, 0.0671882, 120.521869, 132.207985)" fill="none" stroke-linejoin="round" d="M 673.91995 662.769153 C 718.6299 758.989016 777.489303 854.10424 838.842257 948.986908 " stroke="#010101" stroke-width="2.74" stroke-opacity="1" stroke-miterlimit="1.5"/><path fill="#010101" d="M 168.707031 178.613281 C 168.707031 178.800781 168.640625 178.960938 168.507812 179.09375 C 168.375 179.226562 168.210938 179.292969 168.023438 179.292969 C 167.835938 179.292969 167.671875 179.226562 167.539062 179.09375 C 167.40625 178.960938 167.339844 178.800781 167.339844 178.613281 C 167.339844 178.421875 167.40625 178.261719 167.539062 178.128906 C 167.671875 177.996094 167.835938 177.929688 168.023438 177.929688 C 168.210938 177.929688 168.375 177.996094 168.507812 178.128906 C 168.640625 178.261719 168.707031 178.421875 168.707031 178.613281 Z M 168.707031 178.613281 " fill-opacity="1" fill-rule="nonzero"/><path fill="#010101" d="M 172.390625 185.25 C 172.390625 185.4375 172.324219 185.597656 172.1875 185.730469 C 172.054688 185.863281 171.894531 185.929688 171.703125 185.929688 C 171.515625 185.929688 171.355469 185.863281 171.222656 185.730469 C 171.085938 185.597656 171.019531 185.4375 171.019531 185.25 C 171.019531 185.058594 171.085938 184.898438 171.222656 184.765625 C 171.355469 184.632812 171.515625 184.566406 171.703125 184.566406 C 171.894531 184.566406 172.054688 184.632812 172.1875 184.765625 C 172.324219 184.898438 172.390625 185.058594 172.390625 185.25 Z M 172.390625 185.25 " fill-opacity="1" fill-rule="nonzero"/><path fill="#010101" d="M 176.457031 192.011719 C 176.457031 192.203125 176.390625 192.363281 176.257812 192.496094 C 176.125 192.628906 175.964844 192.695312 175.773438 192.695312 C 175.585938 192.695312 175.425781 192.628906 175.289062 192.496094 C 175.15625 192.363281 175.089844 192.203125 175.089844 192.011719 C 175.089844 191.824219 175.15625 191.664062 175.289062 191.53125 C 175.425781 191.398438 175.585938 191.332031 175.773438 191.332031 C 175.964844 191.332031 176.125 191.398438 176.257812 191.53125 C 176.390625 191.664062 176.457031 191.824219 176.457031 192.011719 Z M 176.457031 192.011719 " fill-opacity="1" fill-rule="nonzero"/><path fill="#f1a48a" d="M 146.8125 153.484375 L 141.09375 150.761719 L 141.953125 152.765625 C 138.800781 155.179688 142.652344 159.730469 145.640625 158.734375 C 146.925781 162.386719 149.027344 163.105469 152.074219 163.398438 C 156.808594 163.855469 160.625 163.585938 163.808594 161.054688 C 167.09375 158.441406 165.667969 154.820312 163.871094 151.480469 C 163.328125 148.753906 162.972656 146.140625 161.820312 143.050781 L 159.871094 138.058594 L 145.511719 143.503906 Z M 146.8125 153.484375 " fill-opacity="1" fill-rule="evenodd"/><path stroke-linecap="round" transform="matrix(0.0673613, 0, 0, 0.0671882, 120.521869, 132.207985)" fill="none" stroke-linejoin="round" d="M 328.650113 300.389451 C 299.365385 310.156784 292.11669 348.412174 312.818963 371.493313 C 337.580505 399.167425 364.54565 407.132453 388.901265 383.993175 " stroke="#010101" stroke-width="2.74" stroke-opacity="1" stroke-miterlimit="1.5"/><path stroke-linecap="round" transform="matrix(0.0673613, 0, 0, 0.0671882, 120.521869, 132.207985)" fill="none" stroke-linejoin="round" d="M 333.289277 330.970507 C 345.003168 329.633313 356.253143 333.586757 364.371681 341.028535 C 356.253143 346.958702 354.397477 352.947008 353.99155 358.877174 " stroke="#010101" stroke-width="2.74" stroke-opacity="1" stroke-miterlimit="1.5"/><path fill="#010101" d="M 140.765625 143.339844 C 140.640625 140.234375 141.445312 138.191406 144.792969 137.570312 C 147.152344 137.132812 150.289062 136.144531 150.773438 135.109375 C 152.625 131.128906 155.480469 131.570312 158.503906 134.460938 C 164.148438 134.507812 163.832031 139.5 161.816406 143.078125 C 160.316406 140.695312 158.375 139.546875 156.359375 140.683594 C 154.871094 141.519531 153.128906 142.15625 150.773438 142.300781 C 147.878906 142.480469 146.992188 143.972656 147.589844 146.320312 C 148.179688 148.644531 147.394531 151.199219 146.941406 153.597656 C 144.382812 152.121094 142.894531 152.09375 141.871094 152.929688 C 136.042969 150.996094 137.238281 146.613281 140.765625 143.339844 Z M 140.765625 143.339844 " fill-opacity="1" fill-rule="evenodd"/><path stroke-linecap="round" transform="matrix(0.0673613, 0, 0, 0.0671882, 120.521869, 132.207985)" fill-opacity="1" fill="#ffffff" fill-rule="evenodd" stroke-linejoin="round" d="M 354.687425 300.563868 L 419.345784 273.471145 L 425.260719 284.517534 L 371.446408 306.261479 C 366.343326 303.645229 360.54437 301.901062 354.687425 300.563868 Z M 354.687425 300.563868 " stroke="#010101" stroke-width="2.74" stroke-opacity="1" stroke-miterlimit="1.5"/><path stroke-linecap="round" transform="matrix(0.0673613, 0, 0, 0.0671882, 120.521869, 132.207985)" fill-opacity="1" fill="#ffffff" fill-rule="evenodd" stroke-linejoin="round" d="M 405.080352 248.645839 L 526.162552 207.541644 L 529.757905 240.564533 L 546.864825 236.087839 L 533.121299 204.983532 L 655.131332 161.437504 L 662.206059 276.668784 L 592.908535 299.691784 C 576.4395 281.901284 563.043912 264.634034 552.895739 247.831894 L 532.831352 253.994617 L 535.788819 319.749701 L 448.282574 348.819146 Z M 405.080352 248.645839 " stroke="#010101" stroke-width="2.89" stroke-opacity="1" stroke-miterlimit="1.5"/><path fill="#010101" d="M 149.007812 149.472656 L 155.238281 147.265625 L 155.714844 152.9375 L 151.324219 154.636719 Z M 149.007812 149.472656 " fill-opacity="1" fill-rule="evenodd"/><path fill="#010101" d="M 157.691406 146.515625 L 163.820312 144.402344 L 164.136719 150.21875 L 160.007812 151.578125 Z M 157.691406 146.515625 " fill-opacity="1" fill-rule="evenodd"/><path fill="#ffffff" d="M 161.117188 145.273438 L 163.179688 144.59375 L 161.5625 151.132812 L 160.027344 151.679688 L 159.566406 150.804688 Z M 161.117188 145.273438 " fill-opacity="1" fill-rule="evenodd"/><path fill="#ffffff" d="M 152.875 148.03125 L 154.8125 147.394531 L 153.09375 154.015625 L 151.289062 154.699219 L 150.910156 153.847656 Z M 152.875 148.03125 " fill-opacity="1" fill-rule="evenodd"/><path stroke-linecap="round" transform="matrix(0.0673613, 0, 0, 0.0671882, 120.521869, 132.207985)" fill="none" stroke-linejoin="round" d="M 514.390672 351.028424 C 531.497592 362.132952 550.460178 365.039897 573.366054 357.772535 " stroke="#010101" stroke-width="2.74" stroke-opacity="1" stroke-miterlimit="1.5"/><path stroke-linecap="round" transform="matrix(0.0673613, 0, 0, 0.0671882, 120.521869, 132.207985)" fill="none" stroke-linejoin="round" d="M 552.373833 248.355144 C 564.66762 265.913089 578.179187 282.947784 592.908535 299.517368 C 586.645663 308.412618 578.411145 319.28459 571.16245 327.65659 " stroke="#010101" stroke-width="2.74" stroke-opacity="1" stroke-miterlimit="1.5"/><path fill="#f1a48a" d="M 194.976562 182.328125 L 205.4375 174.242188 C 211.003906 170.332031 215.925781 172.535156 218.253906 176.730469 C 223.871094 186.84375 226.632812 196.957031 229.617188 207.070312 L 215.277344 203.546875 C 213.273438 201.421875 211.367188 198.550781 209.546875 194.957031 L 205.472656 198.078125 Z M 194.976562 182.328125 " fill-opacity="1" fill-rule="evenodd"/><path fill="#f1a48a" d="M 197.832031 199.039062 L 238.574219 206.171875 C 240.925781 205.449219 244.179688 204.226562 245.1875 200.921875 C 245.699219 199.238281 245.941406 197.269531 246.339844 195.746094 C 247.082031 192.902344 249.636719 192.539062 252.148438 195.21875 L 248.46875 217.332031 L 196.273438 217.289062 C 193.792969 210.617188 193.695312 204.414062 197.832031 199.039062 Z M 197.832031 199.039062 " fill-opacity="1" fill-rule="evenodd"/><path stroke-linecap="round" transform="matrix(0.0673613, 0, 0, 0.0671882, 120.521869, 132.207985)" fill="none" stroke-linejoin="round" d="M 1384.466022 1036.718493 L 1605.696191 1074.159939 " stroke="#010101" stroke-width="2.74" stroke-opacity="1" stroke-miterlimit="1.5"/><path stroke-linecap="round" transform="matrix(0.0673613, 0, 0, 0.0671882, 120.521869, 132.207985)" fill="none" stroke-linejoin="round" d="M 1884.509993 924.394158 L 1944.18125 977.416826 " stroke="#010101" stroke-width="2.74" stroke-opacity="1" stroke-miterlimit="1.5"/><path stroke-linecap="round" transform="matrix(0.0673613, 0, 0, 0.0671882, 120.521869, 132.207985)" fill="none" stroke-linejoin="round" d="M 1867.229104 961.603048 L 1934.96091 1015.43966 " stroke="#010101" stroke-width="2.74" stroke-opacity="1" stroke-miterlimit="1.5"/><path stroke-linecap="round" transform="matrix(0.0673613, 0, 0, 0.0671882, 120.521869, 132.207985)" fill="none" stroke-linejoin="round" d="M 1858.58866 1004.45141 L 1925.914539 1060.322883 " stroke="#010101" stroke-width="2.74" stroke-opacity="1" stroke-miterlimit="1.5"/><path stroke-linecap="round" transform="matrix(0.0673613, 0, 0, 0.0671882, 120.521869, 132.207985)" fill-opacity="1" fill="#f1c392" fill-rule="evenodd" stroke-linejoin="round" d="M 977.611273 833.988184 L 1090.458955 747.884488 L 1257.642855 988.579493 L 1233.28724 1009.218798 L 1117.830027 996.835215 L 1095.214099 1268.983359 C 990.195007 1274.041443 896.425889 1275.320498 799.00343 1254.623053 C 735.272904 1241.076692 682.850342 1171.310024 643.069504 1111.252551 Z M 977.611273 833.988184 " stroke="#010101" stroke-width="2.74" stroke-opacity="1" stroke-miterlimit="1.5"/><path stroke-linecap="round" transform="matrix(0.0673613, 0, 0, 0.0671882, 120.521869, 132.207985)" fill-opacity="1" fill="#fdddcc" fill-rule="evenodd" stroke-linejoin="round" d="M 1084.891958 752.070488 L 1119.105798 726.954487 C 1155.349272 818.058128 1210.729302 901.894407 1286.985572 963.696048 L 1250.684108 994.45152 C 1177.443295 925.149963 1120.787495 841.371823 1084.891958 752.070488 Z M 1084.891958 752.070488 " stroke="#010101" stroke-width="2.74" stroke-opacity="1" stroke-miterlimit="1.5"/><path stroke-linecap="round" transform="matrix(0.0673613, 0, 0, 0.0671882, 120.521869, 132.207985)" fill-opacity="1" fill="#fdddcc" fill-rule="evenodd" stroke-linejoin="round" d="M 1111.567155 988.405076 L 1157.958803 987.532993 C 1107.739844 1082.183106 1108.551698 1175.263468 1135.632822 1267.588026 L 1094.634204 1269.332193 C 1067.089163 1174.100691 1065.349476 1080.090105 1111.567155 988.405076 Z M 1111.567155 988.405076 " stroke="#010101" stroke-width="2.74" stroke-opacity="1" stroke-miterlimit="1.5"/><path stroke-linecap="round" transform="matrix(0.0673613, 0, 0, 0.0671882, 120.521869, 132.207985)" fill="none" stroke-linejoin="round" d="M 942.353621 988.405076 L 1111.567155 988.405076 " stroke="#010101" stroke-width="2.74" stroke-opacity="1" stroke-miterlimit="1.5"/><path stroke-linecap="round" transform="matrix(0.0673613, 0, 0, 0.0671882, 120.521869, 132.207985)" fill="none" stroke-linejoin="round" d="M 1262.224031 790.73285 L 1320.1556 927.649936 " stroke="#010101" stroke-width="2.74" stroke-opacity="1" stroke-miterlimit="1.5"/><g clip-path="url(#4989d2f6f7)"><path fill="#010101" d="M 254.09375 194.289062 L 256.519531 194.816406 L 251.898438 218 L 249.300781 217.816406 Z M 254.09375 194.289062 " fill-opacity="1" fill-rule="evenodd"/></g><path stroke-linecap="round" transform="matrix(0.0673613, 0, 0, 0.0671882, 120.521869, 132.207985)" fill-opacity="1" fill="#a04b00" fill-rule="evenodd" stroke-linejoin="round" d="M 1761.050221 1099.392217 C 1791.610719 1088.636522 1818.111948 1070.032077 1833.247223 1053.578772 L 1917.506053 1143.112662 L 1899.065373 1247.937081 Z M 1761.050221 1099.392217 " stroke="#010101" stroke-width="2.74" stroke-opacity="1" stroke-miterlimit="1.5"/><path stroke-linecap="round" transform="matrix(0.0673613, 0, 0, 0.0671882, 120.521869, 132.207985)" fill-opacity="1" fill="#a04b00" fill-rule="evenodd" stroke-linejoin="round" d="M 1955.199266 918.929102 L 1991.094803 927.010408 L 1921.681301 1273.576332 L 1888.801221 1270.843804 Z M 1955.199266 918.929102 " stroke="#010101" stroke-width="2.74" stroke-opacity="1" stroke-miterlimit="1.5"/></svg>