<?xml version="1.0" encoding="iso-8859-1"?>
<!-- Uploaded to: SVG Repo, www.svgrepo.com, Generator: SVG Repo Mixer Tools -->
<svg height="800px" width="800px" version="1.1" id="Capa_1" xmlns="http://www.w3.org/2000/svg" xmlns:xlink="http://www.w3.org/1999/xlink" 
	 viewBox="0 0 464 464" xml:space="preserve">
<g>
	<path style="fill:#D7E6EC;" d="M63.151,312c10.539,0,10.539-8,21.077-8c10.537,0,10.537,8,21.073,8c10.527,0,10.527-8,21.055-8
		c10.534,0,10.534,8,21.069,8c10.547,0,10.547-8,21.093-8c10.535,0,10.535,8,21.07,8c10.547,0,10.547-8,21.094-8
		c10.541,0,10.541,8,21.083,8c10.551,0,10.551-8,21.103-8c10.545,0,10.545,8,21.09,8c10.55,0,10.55-8,21.1-8
		c10.555,0,10.555,8,21.109,8c10.532,0,10.532-8,21.064-8c10.546,0,10.546,8,21.092,8c10.558,0,10.558-8,21.116-8
		c10.559,0,10.559,8,21.119,8c4.831,0,7.451-1.674,9.884-3.49L464,232h-32H48H0l30.676,76.69c2.972-2.201,5.567-4.69,11.432-4.69
		C52.63,304,52.63,312,63.151,312z M32,256L32,256c0-4.418,3.582-8,8-8h368c4.418,0,8,3.582,8,8l0,0c0,4.418-3.582,8-8,8H40
		C35.582,264,32,260.418,32,256z"/>
	<path style="fill:#95DCEC;" d="M0.165,339.272C0.056,338.196,0,337.105,0,336C0,337.105,0.056,338.196,0.165,339.272z"/>
	<path style="fill:#95DCEC;" d="M13.363,362.005c-0.65-0.467-1.285-0.954-1.898-1.468C12.078,361.051,12.713,361.538,13.363,362.005
		z"/>
	<path style="fill:#95DCEC;" d="M17.192,364.366c-0.486-0.254-0.965-0.52-1.436-0.798C16.227,363.846,16.706,364.112,17.192,364.366
		z"/>
	<path style="fill:#95DCEC;" d="M20.051,365.685c-0.215-0.087-0.431-0.17-0.643-0.261C19.621,365.515,19.837,365.599,20.051,365.685
		z"/>
	<path style="fill:#95DCEC;" d="M7.702,356.811c-0.321-0.375-0.634-0.757-0.938-1.147C7.068,356.054,7.381,356.436,7.702,356.811z"
		/>
	<path style="fill:#95DCEC;" d="M1.696,346.276c-0.758-2.235-1.284-4.578-1.531-7.004C0.412,341.698,0.938,344.041,1.696,346.276z"
		/>
	<path style="fill:#95DCEC;" d="M4.063,351.603c-0.078-0.139-0.159-0.275-0.234-0.415C3.904,351.328,3.985,351.464,4.063,351.603z"
		/>
	<path style="fill:#95DCEC;" d="M2.804,349.097c-0.234-0.522-0.456-1.051-0.663-1.587C2.349,348.046,2.57,348.575,2.804,349.097z"/>
	<path style="fill:#95DCEC;" d="M464,336c0,1.104-0.056,2.196-0.165,3.272C463.944,338.196,464,337.105,464,336z"/>
	<path style="fill:#95DCEC;" d="M421.683,304c-5.732,0-8.354,2.355-11.24,4.51c-2.433,1.816-5.054,3.49-9.884,3.49
		c-10.56,0-10.56-8-21.119-8c-10.558,0-10.558,8-21.116,8c-10.546,0-10.546-8-21.092-8c-10.532,0-10.532,8-21.064,8
		c-10.555,0-10.555-8-21.109-8c-10.55,0-10.55,8-21.1,8c-10.545,0-10.545-8-21.09-8c-10.551,0-10.551,8-21.103,8
		c-10.541,0-10.541-8-21.083-8c-10.547,0-10.547,8-21.094,8c-10.535,0-10.535-8-21.07-8c-10.547,0-10.547,8-21.093,8
		c-10.535,0-10.535-8-21.069-8c-10.527,0-10.527,8-21.055,8c-10.537,0-10.537-8-21.073-8c-10.539,0-10.539,8-21.077,8
		c-10.521,0-10.521-8-21.043-8c-5.866,0-8.46,2.489-11.432,4.69c-2.356,1.745-4.95,3.31-9.601,3.31c-10.538,0-10.538-8-21.075-8v16
		c10.538,0,10.538,8,21.075,8c10.517,0,10.517-8,21.033-8c10.521,0,10.521,8,21.043,8c10.539,0,10.539-8,21.077-8
		c10.537,0,10.537,8,21.073,8c10.527,0,10.527-8,21.055-8c10.535,0,10.535,8,21.069,8c10.546,0,10.546-8,21.093-8
		c10.535,0,10.535,8,21.069,8c10.547,0,10.547-8,21.095-8c10.541,0,10.541,8,21.083,8c10.551,0,10.551-8,21.103-8
		c10.545,0,10.545,8,21.089,8c10.55,0,10.55-8,21.101-8c10.555,0,10.555,8,21.109,8c10.532,0,10.532-8,21.064-8
		c10.546,0,10.546,8,21.093,8c10.558,0,10.558-8,21.115-8c10.56,0,10.56,8,21.119,8c10.563,0,10.563-8,21.125-8
		c10.578,0,10.578,8,21.158,8c10.579,0,10.579-8,21.158-8v-16c-10.579,0-10.579,8-21.159,8S432.262,304,421.683,304z"/>
	<path style="fill:#95DCEC;" d="M463.835,339.272c-0.064,0.634-0.153,1.26-0.254,1.883
		C463.682,340.532,463.77,339.906,463.835,339.272z"/>
	<path style="fill:#E2EDF5;" d="M345.578,131.175C339.499,124.082,330.624,120,321.282,120H208c-8.836,0-16,7.163-16,15.999h157.713
		L345.578,131.175z"/>
	<path style="fill:#E2EDF5;" d="M362.943,151.433c-0.912,0.361-1.902,0.566-2.943,0.566h-7.987c-0.004,0-0.009,0.001-0.013,0.001
		s-0.009-0.001-0.013-0.001h-31.973c-0.004,0-0.009,0.001-0.013,0.001s-0.009-0.001-0.013-0.001h-31.973
		c-0.004,0-0.009,0.001-0.013,0.001s-0.009-0.001-0.013-0.001h-31.973c-0.004,0-0.009,0.001-0.013,0.001s-0.009-0.001-0.013-0.001
		h-31.973c-0.004,0-0.009,0.001-0.013,0.001s-0.009-0.001-0.013-0.001h-31.973c-0.004,0-0.009,0.001-0.013,0.001
		s-0.009-0.001-0.013-0.001h-31.973c-0.004,0-0.009,0.001-0.013,0.001s-0.009-0.001-0.013-0.001h-31.973
		c-0.004,0-0.009,0.001-0.013,0.001s-0.009-0.001-0.013-0.001H96.013c-0.004,0-0.009,0.001-0.013,0.001s-0.009-0.001-0.013-0.001H72
		c-0.729,0-1.432-0.106-2.103-0.289L65.455,168h311.688L362.943,151.433z"/>
	<path style="fill:#E2EDF5;" d="M414.894,212.044c-1.39,2.365-3.953,3.956-6.894,3.956h-7.993c-0.002,0-0.005,0-0.007,0
		s-0.005,0-0.007,0h-31.986c-0.002,0-0.005,0-0.007,0s-0.005,0-0.007,0h-31.986c-0.002,0-0.005,0-0.007,0s-0.005,0-0.007,0h-31.986
		c-0.002,0-0.005,0-0.007,0s-0.005,0-0.007,0h-31.986c-0.002,0-0.005,0-0.007,0s-0.005,0-0.007,0h-31.986c-0.002,0-0.005,0-0.007,0
		s-0.005,0-0.007,0h-31.986c-0.002,0-0.005,0-0.007,0s-0.005,0-0.007,0h-31.986c-0.002,0-0.005,0-0.007,0s-0.005,0-0.007,0h-31.986
		c-0.002,0-0.005,0-0.007,0s-0.005,0-0.007,0h-31.986c-0.002,0-0.005,0-0.007,0s-0.005,0-0.007,0H80.007c-0.002,0-0.005,0-0.007,0
		s-0.005,0-0.007,0H56c-1.227,0-2.385-0.284-3.424-0.778L48,232h384L414.894,212.044z"/>
	<path style="fill:#E2EDF5;" d="M389.202,182.069c-1.399,1.2-3.214,1.93-5.202,1.93h-7.989c-0.004,0-0.007,0-0.011,0
		s-0.007,0-0.011,0h-31.978c-0.004,0-0.007,0-0.011,0s-0.007,0-0.011,0h-31.978c-0.004,0-0.007,0-0.011,0s-0.007,0-0.011,0h-31.978
		c-0.004,0-0.007,0-0.011,0s-0.007,0-0.011,0h-31.978c-0.004,0-0.007,0-0.011,0s-0.007,0-0.011,0h-31.978c-0.004,0-0.007,0-0.011,0
		s-0.007,0-0.011,0h-31.978c-0.004,0-0.007,0-0.011,0s-0.007,0-0.011,0h-31.978c-0.004,0-0.007,0-0.011,0s-0.007,0-0.011,0h-31.978
		c-0.004,0-0.007,0-0.011,0s-0.007,0-0.011,0H88.011c-0.004,0-0.007,0-0.011,0s-0.007,0-0.011,0H64
		c-0.976,0-1.907-0.184-2.772-0.503L56.727,200h347.844L389.202,182.069z"/>
	<path style="fill:#C8D7DC;" d="M79.993,216c-4.415-0.004-7.993-3.584-7.993-8c0-4.418,3.582-8,8-8s8,3.582,8,8
		c0,4.416-3.578,7.996-7.993,8h31.986c-4.415-0.004-7.993-3.584-7.993-8c0-4.418,3.582-8,8-8s8,3.582,8,8
		c0,4.416-3.578,7.996-7.993,8h31.986c-4.415-0.004-7.993-3.584-7.993-8c0-4.418,3.582-8,8-8s8,3.582,8,8
		c0,4.416-3.578,7.996-7.993,8h31.986c-4.415-0.004-7.993-3.584-7.993-8c0-4.418,3.582-8,8-8s8,3.582,8,8
		c0,4.416-3.578,7.996-7.993,8h31.986c-4.415-0.004-7.993-3.584-7.993-8c0-4.418,3.582-8,8-8s8,3.582,8,8
		c0,4.416-3.578,7.996-7.993,8h31.986c-4.415-0.004-7.993-3.584-7.993-8c0-4.418,3.582-8,8-8s8,3.582,8,8
		c0,4.416-3.578,7.996-7.993,8h31.986c-4.415-0.004-7.993-3.584-7.993-8c0-4.418,3.582-8,8-8s8,3.582,8,8
		c0,4.416-3.578,7.996-7.993,8h31.986c-4.415-0.004-7.993-3.584-7.993-8c0-4.418,3.582-8,8-8s8,3.582,8,8
		c0,4.416-3.578,7.996-7.993,8h31.986c-4.415-0.004-7.993-3.584-7.993-8c0-4.418,3.582-8,8-8s8,3.582,8,8
		c0,4.416-3.578,7.996-7.993,8h31.986c-4.415-0.004-7.993-3.584-7.993-8c0-4.418,3.582-8,8-8s8,3.582,8,8
		c0,4.416-3.578,7.996-7.993,8h31.986c-4.415-0.004-7.993-3.584-7.993-8c0-4.418,3.582-8,8-8s8,3.582,8,8
		c0,4.416-3.578,7.996-7.993,8H408c2.941,0,5.504-1.592,6.894-3.956c0.698-1.188,1.106-2.567,1.106-4.044c0-4.418-3.582-8-8-8
		h-3.429H56.727H56c-4.418,0-8,3.582-8,8c0,3.191,1.873,5.938,4.576,7.222C53.615,215.715,54.773,216,56,216H79.993z"/>
	<path style="fill:#C8D7DC;" d="M416,256L416,256c0-4.418-3.582-8-8-8H40c-4.418,0-8,3.582-8,8l0,0c0,4.418,3.582,8,8,8h368
		C412.418,264,416,260.418,416,256z"/>
	<path style="fill:#C8D7DC;" d="M87.989,184c-4.413-0.006-7.989-3.585-7.989-8c0-4.418,3.582-8,8-8s8,3.582,8,8
		c0,4.415-3.576,7.993-7.989,8h31.978c-4.413-0.006-7.989-3.585-7.989-8c0-4.418,3.582-8,8-8s8,3.582,8,8
		c0,4.415-3.576,7.993-7.989,8h31.978c-4.413-0.006-7.989-3.585-7.989-8c0-4.418,3.582-8,8-8s8,3.582,8,8
		c0,4.415-3.576,7.993-7.989,8h31.978c-4.413-0.006-7.989-3.585-7.989-8c0-4.418,3.582-8,8-8s8,3.582,8,8
		c0,4.415-3.576,7.993-7.989,8h31.978c-4.413-0.006-7.989-3.585-7.989-8c0-4.418,3.582-8,8-8s8,3.582,8,8
		c0,4.415-3.576,7.993-7.989,8h31.978c-4.413-0.006-7.989-3.585-7.989-8c0-4.418,3.582-8,8-8s8,3.582,8,8
		c0,4.415-3.576,7.993-7.989,8h31.978c-4.413-0.006-7.989-3.585-7.989-8c0-4.418,3.582-8,8-8s8,3.582,8,8
		c0,4.415-3.576,7.993-7.989,8h31.978c-4.413-0.006-7.989-3.585-7.989-8c0-4.418,3.582-8,8-8s8,3.582,8,8
		c0,4.415-3.576,7.993-7.989,8h31.978c-4.413-0.006-7.989-3.585-7.989-8c0-4.418,3.582-8,8-8s8,3.582,8,8
		c0,4.415-3.576,7.993-7.989,8h31.978c-4.413-0.006-7.989-3.585-7.989-8c0-4.418,3.582-8,8-8s8,3.582,8,8
		c0,4.415-3.576,7.993-7.989,8H384c1.988,0,3.803-0.73,5.202-1.93c1.71-1.467,2.798-3.64,2.798-6.07c0-4.418-3.582-8-8-8h-6.858
		H65.455H64c-4.418,0-8,3.582-8,8c0,3.442,2.178,6.368,5.228,7.497C62.093,183.816,63.024,184,64,184H87.989z"/>
	<path style="fill:#C8D7DC;" d="M128,136c4.418,0,8,3.582,8,8c0,4.414-3.575,7.992-7.987,7.999h31.973
		C155.575,151.992,152,148.414,152,144c0-4.418,3.582-8,8-8s8,3.582,8,8c0,4.414-3.575,7.992-7.987,7.999h31.973
		C187.575,151.992,184,148.414,184,144c0-4.418,3.582-8,8-8s8,3.582,8,8c0,4.414-3.575,7.992-7.987,7.999h31.973
		C219.575,151.992,216,148.414,216,144c0-4.418,3.582-8,8-8s8,3.582,8,8c0,4.414-3.575,7.992-7.987,7.999h31.973
		C251.575,151.992,248,148.414,248,144c0-4.418,3.582-8,8-8s8,3.582,8,8c0,4.414-3.575,7.992-7.987,7.999h31.973
		C283.575,151.992,280,148.414,280,144c0-4.418,3.582-8,8-8s8,3.582,8,8c0,4.414-3.575,7.992-7.987,7.999h31.973
		C315.575,151.992,312,148.414,312,144c0-4.418,3.582-8,8-8s8,3.582,8,8c0,4.414-3.575,7.992-7.987,7.999h31.973
		C347.575,151.992,344,148.414,344,144c0-4.418,3.582-8,8-8s8,3.582,8,8c0,4.414-3.575,7.992-7.987,7.999H360
		c1.04,0,2.031-0.205,2.943-0.566c2.961-1.173,5.057-4.056,5.057-7.434c0-4.418-3.582-8-8-8h-10.286H192.001H144l0,0.001H128z"/>
	<path style="fill:#C8D7DC;" d="M95.987,151.999C91.575,151.992,88,148.414,88,144c0-4.418,3.582-8,8-8v-0.001H72
		c-4.418,0-8,3.582-8,8c0,3.689,2.501,6.787,5.897,7.711c0.671,0.183,1.374,0.289,2.103,0.289H95.987z"/>
	<path style="fill:#C8D7DC;" d="M120,144c0-4.418,3.582-8,8-8H96c4.418,0,8,3.582,8,8c0,4.414-3.575,7.992-7.987,7.999h31.973
		C123.575,151.992,120,148.414,120,144z"/>
	<path style="fill:#8CAFCD;" d="M88,208c0-4.418-3.582-8-8-8s-8,3.582-8,8c0,4.416,3.578,7.996,7.993,8c0.002,0,0.005,0,0.007,0
		s0.005,0,0.007,0C84.422,215.996,88,212.416,88,208z"/>
	<path style="fill:#8CAFCD;" d="M120,208c0-4.418-3.582-8-8-8s-8,3.582-8,8c0,4.416,3.578,7.996,7.993,8c0.002,0,0.005,0,0.007,0
		s0.005,0,0.007,0C116.422,215.996,120,212.416,120,208z"/>
	<path style="fill:#8CAFCD;" d="M152,208c0-4.418-3.582-8-8-8s-8,3.582-8,8c0,4.416,3.578,7.996,7.993,8c0.002,0,0.005,0,0.007,0
		s0.005,0,0.007,0C148.422,215.996,152,212.416,152,208z"/>
	<path style="fill:#8CAFCD;" d="M184,208c0-4.418-3.582-8-8-8s-8,3.582-8,8c0,4.416,3.578,7.996,7.993,8c0.002,0,0.005,0,0.007,0
		s0.005,0,0.007,0C180.422,215.996,184,212.416,184,208z"/>
	<path style="fill:#8CAFCD;" d="M216,208c0-4.418-3.582-8-8-8s-8,3.582-8,8c0,4.416,3.578,7.996,7.993,8c0.002,0,0.005,0,0.007,0
		s0.005,0,0.007,0C212.422,215.996,216,212.416,216,208z"/>
	<path style="fill:#8CAFCD;" d="M248,208c0-4.418-3.582-8-8-8s-8,3.582-8,8c0,4.416,3.578,7.996,7.993,8c0.002,0,0.005,0,0.007,0
		s0.005,0,0.007,0C244.422,215.996,248,212.416,248,208z"/>
	<path style="fill:#8CAFCD;" d="M280,208c0-4.418-3.582-8-8-8s-8,3.582-8,8c0,4.416,3.578,7.996,7.993,8c0.002,0,0.005,0,0.007,0
		s0.005,0,0.007,0C276.422,215.996,280,212.416,280,208z"/>
	<path style="fill:#8CAFCD;" d="M312,208c0-4.418-3.582-8-8-8s-8,3.582-8,8c0,4.416,3.578,7.996,7.993,8c0.002,0,0.005,0,0.007,0
		s0.005,0,0.007,0C308.422,215.996,312,212.416,312,208z"/>
	<path style="fill:#8CAFCD;" d="M344,208c0-4.418-3.582-8-8-8s-8,3.582-8,8c0,4.416,3.578,7.996,7.993,8c0.002,0,0.005,0,0.007,0
		s0.005,0,0.007,0C340.422,215.996,344,212.416,344,208z"/>
	<path style="fill:#8CAFCD;" d="M376,208c0-4.418-3.582-8-8-8s-8,3.582-8,8c0,4.416,3.578,7.996,7.993,8c0.002,0,0.005,0,0.007,0
		s0.005,0,0.007,0C372.422,215.996,376,212.416,376,208z"/>
	<path style="fill:#8CAFCD;" d="M408,208c0-4.418-3.582-8-8-8s-8,3.582-8,8c0,4.416,3.578,7.996,7.993,8c0.002,0,0.005,0,0.007,0
		s0.005,0,0.007,0C404.422,215.996,408,212.416,408,208z"/>
	<path style="fill:#8CAFCD;" d="M96,176c0-4.418-3.582-8-8-8s-8,3.582-8,8c0,4.415,3.576,7.993,7.989,8c0.004,0,0.007,0,0.011,0
		s0.007,0,0.011,0C92.424,183.993,96,180.415,96,176z"/>
	<path style="fill:#8CAFCD;" d="M128,176c0-4.418-3.582-8-8-8s-8,3.582-8,8c0,4.415,3.576,7.993,7.989,8c0.004,0,0.007,0,0.011,0
		s0.007,0,0.011,0C124.424,183.993,128,180.415,128,176z"/>
	<path style="fill:#8CAFCD;" d="M160,176c0-4.418-3.582-8-8-8s-8,3.582-8,8c0,4.415,3.576,7.993,7.989,8c0.004,0,0.007,0,0.011,0
		s0.007,0,0.011,0C156.424,183.993,160,180.415,160,176z"/>
	<path style="fill:#8CAFCD;" d="M192,176c0-4.418-3.582-8-8-8s-8,3.582-8,8c0,4.415,3.576,7.993,7.989,8c0.004,0,0.007,0,0.011,0
		s0.007,0,0.011,0C188.424,183.993,192,180.415,192,176z"/>
	<path style="fill:#8CAFCD;" d="M224,176c0-4.418-3.582-8-8-8s-8,3.582-8,8c0,4.415,3.576,7.993,7.989,8c0.004,0,0.007,0,0.011,0
		s0.007,0,0.011,0C220.424,183.993,224,180.415,224,176z"/>
	<path style="fill:#8CAFCD;" d="M256,176c0-4.418-3.582-8-8-8s-8,3.582-8,8c0,4.415,3.576,7.993,7.989,8c0.004,0,0.007,0,0.011,0
		s0.007,0,0.011,0C252.424,183.993,256,180.415,256,176z"/>
	<path style="fill:#8CAFCD;" d="M288,176c0-4.418-3.582-8-8-8s-8,3.582-8,8c0,4.415,3.576,7.993,7.989,8c0.004,0,0.007,0,0.011,0
		s0.007,0,0.011,0C284.424,183.993,288,180.415,288,176z"/>
	<path style="fill:#8CAFCD;" d="M320,176c0-4.418-3.582-8-8-8s-8,3.582-8,8c0,4.415,3.576,7.993,7.989,8c0.004,0,0.007,0,0.011,0
		s0.007,0,0.011,0C316.424,183.993,320,180.415,320,176z"/>
	<path style="fill:#8CAFCD;" d="M352,176c0-4.418-3.582-8-8-8s-8,3.582-8,8c0,4.415,3.576,7.993,7.989,8c0.004,0,0.007,0,0.011,0
		s0.007,0,0.011,0C348.424,183.993,352,180.415,352,176z"/>
	<path style="fill:#8CAFCD;" d="M384,176c0-4.418-3.582-8-8-8s-8,3.582-8,8c0,4.415,3.576,7.993,7.989,8c0.004,0,0.007,0,0.011,0
		s0.007,0,0.011,0C380.424,183.993,384,180.415,384,176z"/>
	<path style="fill:#8CAFCD;" d="M104,144c0-4.418-3.582-8-8-8s-8,3.582-8,8c0,4.414,3.575,7.992,7.987,7.999
		c0.004,0,0.009,0.001,0.013,0.001s0.009-0.001,0.013-0.001C100.425,151.992,104,148.414,104,144z"/>
	<path style="fill:#8CAFCD;" d="M136,144c0-4.418-3.582-8-8-8s-8,3.582-8,8c0,4.414,3.575,7.992,7.987,7.999
		c0.004,0,0.009,0.001,0.013,0.001s0.009-0.001,0.013-0.001C132.425,151.992,136,148.414,136,144z"/>
	<path style="fill:#8CAFCD;" d="M168,144c0-4.418-3.582-8-8-8s-8,3.582-8,8c0,4.414,3.575,7.992,7.987,7.999
		c0.004,0,0.009,0.001,0.013,0.001s0.009-0.001,0.013-0.001C164.425,151.992,168,148.414,168,144z"/>
	<path style="fill:#8CAFCD;" d="M200,144c0-4.418-3.582-8-8-8s-8,3.582-8,8c0,4.414,3.575,7.992,7.987,7.999
		c0.004,0,0.009,0.001,0.013,0.001s0.009-0.001,0.013-0.001C196.425,151.992,200,148.414,200,144z"/>
	<path style="fill:#8CAFCD;" d="M232,144c0-4.418-3.582-8-8-8s-8,3.582-8,8c0,4.414,3.575,7.992,7.987,7.999
		c0.004,0,0.009,0.001,0.013,0.001s0.009-0.001,0.013-0.001C228.425,151.992,232,148.414,232,144z"/>
	<path style="fill:#8CAFCD;" d="M264,144c0-4.418-3.582-8-8-8s-8,3.582-8,8c0,4.414,3.575,7.992,7.987,7.999
		c0.004,0,0.009,0.001,0.013,0.001s0.009-0.001,0.013-0.001C260.425,151.992,264,148.414,264,144z"/>
	<path style="fill:#8CAFCD;" d="M296,144c0-4.418-3.582-8-8-8s-8,3.582-8,8c0,4.414,3.575,7.992,7.987,7.999
		c0.004,0,0.009,0.001,0.013,0.001s0.009-0.001,0.013-0.001C292.425,151.992,296,148.414,296,144z"/>
	<path style="fill:#8CAFCD;" d="M328,144c0-4.418-3.582-8-8-8s-8,3.582-8,8c0,4.414,3.575,7.992,7.987,7.999
		c0.004,0,0.009,0.001,0.013,0.001s0.009-0.001,0.013-0.001C324.425,151.992,328,148.414,328,144z"/>
	<path style="fill:#8CAFCD;" d="M360,144c0-4.418-3.582-8-8-8s-8,3.582-8,8c0,4.414,3.575,7.992,7.987,7.999
		c0.004,0,0.009,0.001,0.013,0.001s0.009-0.001,0.013-0.001C356.425,151.992,360,148.414,360,144z"/>
	<path style="fill:#E2EDF5;" d="M128,136h16l0-0.001L122.33,99.884c-1.446-2.41-4.05-3.884-6.86-3.884H104c-4.418,0-8,3.582-8,8
		v31.999V136H128z"/>
	<path style="fill:#82C8DC;" d="M421.684,320c-10.563,0-10.563,8-21.125,8c-10.56,0-10.56-8-21.119-8c-10.558,0-10.558,8-21.115,8
		c-10.547,0-10.547-8-21.093-8c-10.532,0-10.532,8-21.064,8c-10.554,0-10.554-8-21.109-8c-10.55,0-10.55,8-21.101,8
		c-10.544,0-10.544-8-21.089-8c-10.551,0-10.551,8-21.103,8c-10.542,0-10.542-8-21.083-8c-10.547,0-10.547,8-21.095,8
		c-10.535,0-10.535-8-21.069-8c-10.547,0-10.547,8-21.093,8c-10.535,0-10.535-8-21.069-8c-10.527,0-10.527,8-21.055,8
		c-10.537,0-10.537-8-21.073-8c-10.539,0-10.539,8-21.077,8c-10.521,0-10.521-8-21.043-8c-10.517,0-10.517,8-21.033,8
		c-10.538,0-10.538-8-21.075-8v16c0,1.104,0.056,2.196,0.165,3.272c0.247,2.427,0.773,4.769,1.531,7.004
		c0.141,0.415,0.289,0.826,0.446,1.234c0.207,0.536,0.428,1.065,0.663,1.587c0.319,0.71,0.656,1.41,1.024,2.091
		c0.076,0.14,0.157,0.276,0.234,0.415c0.798,1.425,1.702,2.781,2.701,4.061c0.304,0.39,0.617,0.772,0.938,1.147
		c1.151,1.343,2.408,2.591,3.764,3.727c0.613,0.513,1.247,1.001,1.898,1.468c0.773,0.555,1.57,1.077,2.393,1.563
		c0.471,0.278,0.95,0.543,1.436,0.798c0.724,0.379,1.461,0.735,2.216,1.058c0.212,0.091,0.428,0.175,0.643,0.261
		c3.21,1.293,6.674,2.089,10.302,2.273C30.899,367.986,31.448,368,32,368h400c15.918,0,29.115-11.624,31.581-26.845
		c0.101-0.622,0.189-1.249,0.254-1.883c0.109-1.076,0.165-2.167,0.165-3.272v-16c-10.579,0-10.579,8-21.158,8
		C432.262,328,432.262,320,421.684,320z"/>
</g>
</svg>